<?xml version="1.0" encoding="UTF-8" standalone="no"?>
<!-- Created with Inkscape (http://www.inkscape.org/) -->

<svg
   width="117.7841mm"
   height="25.103241mm"
   viewBox="0 0 117.7841 25.103241"
   version="1.1"
   id="svg5180"
   xmlns="http://www.w3.org/2000/svg"
   xmlns:svg="http://www.w3.org/2000/svg">
  <defs
     id="defs5177" />
  <g
     id="layer1"
     transform="translate(-44.446589,-21.763121)">
    <g
       id="g27"
       transform="matrix(0.35277777,0,0,-0.35277777,52.638442,27.14238)">
      <path
         d="m 0,0 c -1.325,0.023 -2.139,0.78 -2.444,2.27 -0.05,0.319 -0.072,0.61 -0.067,0.876 0.024,1.325 0.525,3.198 1.508,5.62 0.347,0.895 0.603,1.368 0.77,1.418 L 2.07,9.348 2.069,9.268 C 1.949,8.793 1.717,8.134 1.372,7.292 0.733,5.606 0.407,4.26 0.389,3.254 L 0.375,2.458 c 0.112,0.105 0.363,0.285 0.754,0.544 0.28,0.206 0.448,0.336 0.504,0.389 1.131,1.517 1.715,3.282 1.75,5.297 0.034,1.908 -0.441,3.136 -1.425,3.684 -0.274,0.11 -0.522,0.168 -0.742,0.172 -3.035,0.054 -6.721,-2.373 -11.058,-7.279 -4.675,-5.22 -7.805,-10.546 -9.392,-15.978 -0.472,-1.689 -0.719,-3.196 -0.743,-4.52 0.411,-4.886 3.207,-7.481 8.391,-7.784 0.993,-0.018 3.509,0.282 7.55,0.9 0.221,0.048 0.415,0.072 0.581,0.069 l -0.003,-0.159 c -3.063,-1.536 -4.874,-2.405 -5.428,-2.608 -1.555,-0.502 -3.133,-0.74 -4.732,-0.711 -6.228,0.588 -9.427,3.719 -9.603,9.396 0.095,5.353 2.381,11.357 6.861,18.011 4.025,5.973 8.263,10.033 12.718,12.181 1.781,0.816 3.416,1.212 4.906,1.185 2.262,-0.04 3.703,-1.312 4.321,-3.814 C 5.738,10.74 5.809,10.049 5.796,9.361 5.756,7.082 5.024,4.788 3.604,2.481 2.305,0.86 1.104,0.033 0,0"
         style="fill:#08777f;fill-opacity:1;fill-rule:nonzero;stroke:none"
         id="path29" />
    </g>
    <g
       id="g31"
       transform="matrix(0.35277777,0,0,-0.35277777,56.469044,32.106069)">
      <path
         d="m 0,0 c 1.167,1.057 1.95,1.659 2.352,1.805 0.182,0.072 0.364,0.109 0.546,0.109 0.219,0 0.365,-0.018 0.438,-0.055 1.094,-0.437 1.641,-1.513 1.641,-3.226 0,-0.292 -0.055,-0.748 -0.165,-1.367 -0.073,-0.62 -0.109,-1.058 -0.109,-1.313 0.036,-0.693 0.292,-1.057 0.766,-1.094 1.713,0 4.265,0.966 7.656,2.899 1.385,0.802 2.352,1.476 2.898,2.023 L 16.625,-0.93 C 15.458,-2.097 13.271,-3.482 10.063,-5.086 7.219,-6.508 5.067,-7.219 3.609,-7.219 2.625,-7 2.096,-6.472 2.023,-5.633 c 0,0.255 0.037,0.711 0.11,1.367 0.073,1.021 0.109,1.823 0.109,2.407 0,0.255 -0.036,0.637 -0.109,1.148 -2.406,-1.312 -4.193,-2.698 -5.36,-4.156 L -3.281,-4.922 C -3.318,-4.958 -3.354,-5.004 -3.391,-5.059 -3.427,-5.113 -3.482,-5.187 -3.555,-5.277 -3.628,-5.369 -3.701,-5.451 -3.773,-5.523 -3.847,-5.597 -3.919,-5.679 -3.992,-5.77 -4.065,-5.861 -4.138,-5.952 -4.211,-6.043 -4.284,-6.134 -4.348,-6.226 -4.402,-6.316 -4.457,-6.408 -4.512,-6.48 -4.566,-6.535 -4.621,-6.59 -4.667,-6.653 -4.703,-6.727 l -0.109,-0.054 c -0.183,-0.146 -0.457,-0.328 -0.821,-0.547 -0.255,-0.182 -0.437,-0.31 -0.547,-0.383 -0.073,0.037 -0.218,0.091 -0.437,0.164 -0.62,0.292 -0.948,0.602 -0.985,0.93 0,0.364 0.055,0.711 0.165,1.039 4.119,19.141 6.289,29.586 6.507,31.336 h 0.274 c 0.145,0.036 0.237,0.054 0.273,0.054 1.239,-0.255 1.932,-1.148 2.078,-2.679 0,-1.203 -1.823,-9.334 -5.468,-24.391 -0.074,-0.292 -0.128,-0.492 -0.165,-0.601 -0.109,-0.402 -0.437,-1.313 -0.984,-2.735 0.401,0.438 1.878,1.805 4.43,4.102 z"
         style="fill:#08777f;fill-opacity:1;fill-rule:nonzero;stroke:none"
         id="path33" />
    </g>
    <g
       id="g35"
       transform="matrix(0.35277777,0,0,-0.35277777,64.649079,30.890644)">
      <path
         d="m 0,0 c 0,-1.094 -0.456,-2.644 -1.367,-4.648 -0.656,-1.422 -0.985,-2.571 -0.985,-3.446 0.037,-1.094 0.383,-1.659 1.04,-1.695 1.64,0 4.411,1.841 8.312,5.523 0.219,0.255 0.419,0.456 0.602,0.602 l 0.601,-0.711 c -5.031,-4.995 -8.64,-7.51 -10.828,-7.547 -1.386,0.073 -2.097,0.894 -2.133,2.461 0,1.021 0.456,2.479 1.367,4.375 0.875,1.823 1.313,3.354 1.313,4.594 0,1.094 -0.31,1.987 -0.93,2.68 C -3.154,2.297 -3.263,2.37 -3.336,2.406 -3.519,2.333 -3.609,2.06 -3.609,1.586 -3.646,-0.419 -4.648,-2.406 -6.617,-4.375 h -0.274 l -0.273,0.711 c 1.276,1.312 1.914,2.825 1.914,4.539 -0.037,1.239 -0.419,2.352 -1.148,3.336 0,0.182 0.136,0.383 0.41,0.601 0.273,0.219 0.537,0.401 0.793,0.547 l 0.383,0.164 C -1.641,4.903 -0.037,3.063 0,0"
         style="fill:#08777f;fill-opacity:1;fill-rule:nonzero;stroke:none"
         id="path37" />
    </g>
    <g
       id="g39"
       transform="matrix(0.35277777,0,0,-0.35277777,68.31469,29.462988)">
      <path
         d="m 0,0 c -0.912,0.766 -1.513,1.713 -1.805,2.844 0.036,0.036 0.091,0.073 0.164,0.109 l 1.313,1.914 C 0.547,4.393 1.039,3.609 1.148,2.516 V 2.406 2.078 C 1.112,1.969 1.094,1.877 1.094,1.805 0.911,1.221 0.674,0.692 0.383,0.219 0.346,0.146 0.31,0.091 0.273,0.055 Z m -3.063,-9.078 c 0,0.036 0.019,0.145 0.055,0.328 0.11,0.875 0.237,1.549 0.383,2.023 0.401,0.948 0.856,1.44 1.367,1.477 0.583,-0.255 0.93,-0.857 1.039,-1.805 0,-0.51 -0.073,-0.984 -0.218,-1.422 -0.475,-1.349 -0.711,-2.296 -0.711,-2.843 0.072,-0.803 0.419,-1.222 1.039,-1.258 1.567,0 3.864,1.385 6.89,4.156 l 0.711,0.711 0.547,-0.711 c -2.516,-2.516 -5.013,-4.266 -7.492,-5.25 -1.021,-0.401 -1.914,-0.601 -2.68,-0.601 -0.911,0.073 -1.386,0.729 -1.422,1.968 0,0.948 0.164,2.024 0.492,3.227"
         style="fill:#08777f;fill-opacity:1;fill-rule:nonzero;stroke:none"
         id="path41" />
    </g>
    <g
       id="g43"
       transform="matrix(0.35277777,0,0,-0.35277777,71.285711,31.835983)">
      <path
         d="M 0,0 C 0.437,0.692 0.656,1.44 0.656,2.242 0.62,3.153 0.383,3.664 -0.055,3.773 -0.456,3.7 -0.675,3.391 -0.711,2.844 -0.711,2.333 -0.474,1.385 0,0 m -0.109,-10.5 c -1.203,-0.729 -1.842,-1.294 -1.914,-1.695 0.072,-0.073 0.127,-0.11 0.164,-0.11 0.51,0 1.002,0.402 1.476,1.203 0.11,0.219 0.2,0.42 0.274,0.602 M -2.68,3.063 c 0,1.057 0.529,1.804 1.586,2.242 0.365,0.145 0.711,0.218 1.039,0.218 C 1.221,5.45 1.877,4.575 1.914,2.898 1.914,1.877 1.44,0.674 0.492,-0.711 0.419,-0.82 0.364,-0.912 0.328,-0.984 1.239,-3.537 1.786,-5.542 1.969,-7 c 0.036,-0.219 0.073,-0.437 0.109,-0.656 4.703,2.88 7.857,5.104 9.461,6.672 l 0.547,-0.711 c -1.787,-1.787 -5.068,-4.23 -9.844,-7.328 -0.073,-1.823 -0.729,-3.373 -1.969,-4.649 -0.729,-0.729 -1.476,-1.094 -2.242,-1.094 -1.677,0.037 -2.534,0.566 -2.57,1.586 0.036,0.949 0.93,1.988 2.68,3.117 0.218,0.146 0.565,0.347 1.039,0.602 0.437,0.292 0.765,0.492 0.984,0.602 v 0.109 c 0,0.109 -0.018,0.31 -0.055,0.602 v 0.656 c -0.328,2.005 -0.82,3.955 -1.476,5.851 -0.073,0.292 -0.219,0.711 -0.438,1.258 -0.583,1.458 -0.875,2.607 -0.875,3.446"
         style="fill:#08777f;fill-opacity:1;fill-rule:nonzero;stroke:none"
         id="path45" />
    </g>
    <g
       id="g47"
       transform="matrix(0.35277777,0,0,-0.35277777,75.703723,30.176798)">
      <path
         d="M 0,0 C 0.146,0.583 0.346,1.44 0.602,2.57 0.893,3.737 1.112,4.612 1.258,5.195 0.2,5.159 -1.185,5.141 -2.898,5.141 H -4.32 C -2.315,3.463 -0.875,1.75 0,0 m 2.953,11.43 c 0,0.291 0.018,0.783 0.055,1.476 0.073,2.188 0.255,3.482 0.547,3.883 0.656,0.838 1.057,1.294 1.203,1.367 0.219,0.146 0.419,0.219 0.601,0.219 C 6.38,18.338 6.891,17.7 6.891,16.461 6.891,16.133 6.526,14.583 5.797,11.813 5.651,11.266 5.432,10.481 5.141,9.461 4.849,8.403 4.63,7.62 4.484,7.109 c 1.13,0.037 2.333,0.055 3.61,0.055 0.401,0 1.13,-0.037 2.187,-0.109 1.021,-0.037 1.932,-0.074 2.735,-0.11 V 6.891 C 11.922,6.672 10.81,6.417 9.68,6.125 8.586,5.87 7.292,5.669 5.797,5.523 5.031,5.45 4.411,5.396 3.938,5.359 3.864,5.141 2.643,0.31 0.273,-9.133 0.2,-9.461 0.127,-9.753 0.055,-10.008 c -0.402,-1.677 -0.602,-2.971 -0.602,-3.883 0.036,-1.932 0.729,-2.916 2.078,-2.953 2.771,0.037 7.857,3.756 15.258,11.157 l 0.547,-0.711 C 9.315,-14.383 3.719,-18.393 0.547,-18.43 c -2.115,0.074 -3.191,1.787 -3.227,5.141 0,0.583 0.11,1.731 0.328,3.445 0.802,3.573 1.422,6.253 1.86,8.039 -0.693,2.443 -2.425,4.539 -5.195,6.289 -0.474,0.292 -0.948,0.547 -1.422,0.766 -1.823,0.109 -3.464,0.346 -4.922,0.711 -0.146,0.036 -0.346,0.073 -0.602,0.109 -0.765,0.11 -1.203,0.383 -1.312,0.821 C -13.981,7.036 -14,7.182 -14,7.328 c 0,0.182 0.037,0.492 0.109,0.93 0.074,0.473 0.11,0.802 0.11,0.984 0.073,0 0.2,0.009 0.383,0.028 0.182,0.018 0.31,0.027 0.382,0.027 0.839,0 1.933,-0.292 3.282,-0.875 C -9.37,8.239 -8.841,7.984 -8.148,7.656 -5.341,7.255 -2.479,7.055 0.437,7.055 H 1.75 c 0.109,0.51 0.31,1.239 0.602,2.187 0.291,0.985 0.492,1.714 0.601,2.188"
         style="fill:#08777f;fill-opacity:1;fill-rule:nonzero;stroke:none"
         id="path49" />
    </g>
    <g
       id="g51"
       transform="matrix(0.35277777,0,0,-0.35277777,82.591145,29.462988)">
      <path
         d="m 0,0 c -0.912,0.766 -1.513,1.713 -1.805,2.844 0.036,0.036 0.091,0.073 0.164,0.109 l 1.313,1.914 C 0.547,4.393 1.039,3.609 1.148,2.516 V 2.406 2.078 C 1.112,1.969 1.094,1.877 1.094,1.805 0.911,1.221 0.674,0.692 0.383,0.219 0.346,0.146 0.31,0.091 0.273,0.055 Z m -3.063,-9.078 c 0,0.036 0.019,0.145 0.055,0.328 0.11,0.875 0.237,1.549 0.383,2.023 0.401,0.948 0.856,1.44 1.367,1.477 0.583,-0.255 0.93,-0.857 1.039,-1.805 0,-0.51 -0.073,-0.984 -0.218,-1.422 -0.475,-1.349 -0.711,-2.296 -0.711,-2.843 0.072,-0.803 0.419,-1.222 1.039,-1.258 1.567,0 3.864,1.385 6.89,4.156 l 0.711,0.711 0.547,-0.711 c -2.516,-2.516 -5.013,-4.266 -7.492,-5.25 -1.021,-0.401 -1.914,-0.601 -2.68,-0.601 -0.911,0.073 -1.386,0.729 -1.422,1.968 0,0.948 0.164,2.024 0.492,3.227"
         style="fill:#08777f;fill-opacity:1;fill-rule:nonzero;stroke:none"
         id="path53" />
    </g>
    <g
       id="g55"
       transform="matrix(0.35277777,0,0,-0.35277777,87.105606,32.106069)">
      <path
         d="m 0,0 c 1.167,1.057 1.95,1.659 2.352,1.805 0.182,0.072 0.364,0.109 0.546,0.109 0.219,0 0.365,-0.018 0.438,-0.055 1.094,-0.437 1.641,-1.513 1.641,-3.226 0,-0.292 -0.055,-0.748 -0.165,-1.367 -0.073,-0.62 -0.109,-1.058 -0.109,-1.313 0.036,-0.693 0.292,-1.057 0.766,-1.094 1.714,0 4.265,0.966 7.656,2.899 1.386,0.802 2.352,1.476 2.898,2.023 L 16.625,-0.93 C 15.458,-2.097 13.271,-3.482 10.063,-5.086 7.219,-6.508 5.067,-7.219 3.609,-7.219 2.625,-7 2.096,-6.472 2.023,-5.633 c 0,0.255 0.037,0.711 0.11,1.367 0.073,1.021 0.109,1.823 0.109,2.407 0,0.255 -0.036,0.637 -0.109,1.148 -2.406,-1.312 -4.193,-2.698 -5.36,-4.156 L -3.281,-4.922 C -3.318,-4.958 -3.354,-5.004 -3.391,-5.059 -3.427,-5.113 -3.482,-5.187 -3.555,-5.277 -3.628,-5.369 -3.701,-5.451 -3.773,-5.523 -3.847,-5.597 -3.919,-5.679 -3.992,-5.77 -4.065,-5.861 -4.138,-5.952 -4.211,-6.043 -4.284,-6.134 -4.348,-6.226 -4.402,-6.316 -4.457,-6.408 -4.512,-6.48 -4.566,-6.535 -4.621,-6.59 -4.667,-6.653 -4.703,-6.727 l -0.109,-0.054 c -0.183,-0.146 -0.457,-0.328 -0.821,-0.547 -0.255,-0.182 -0.437,-0.31 -0.547,-0.383 -0.073,0.037 -0.218,0.091 -0.437,0.164 -0.62,0.292 -0.948,0.602 -0.985,0.93 0,0.364 0.055,0.711 0.165,1.039 0.619,2.953 1.203,6.434 1.75,10.445 h 0.273 c 0.145,0.036 0.237,0.055 0.273,0.055 1.24,-0.255 1.933,-1.149 2.078,-2.68 0,-0.911 -0.291,-2.279 -0.875,-4.101 -0.073,-0.256 -0.218,-0.675 -0.437,-1.258 -0.146,-0.365 -0.237,-0.62 -0.273,-0.766 0.4,0.364 1.039,0.875 1.914,1.531 C -1.458,-1.367 -0.547,-0.583 0,0"
         style="fill:#08777f;fill-opacity:1;fill-rule:nonzero;stroke:none"
         id="path57" />
    </g>
    <g
       id="g59"
       transform="matrix(0.35277777,0,0,-0.35277777,99.491422,31.199325)">
      <path
         d="m 0,0 c 0.547,-0.183 1.112,-0.273 1.695,-0.273 0.657,0 1.277,0.054 1.86,0.164 C 3.19,0.073 2.789,0.237 2.352,0.383 L 1.641,0.492 C 1.495,0.492 1.239,0.474 0.875,0.437 0.511,0.401 0.255,0.383 0.109,0.383 0.109,0.346 0.091,0.292 0.055,0.219 0.019,0.109 0,0.036 0,0 m -5.469,-14.875 c 0.693,2.443 1.75,6.945 3.172,13.508 -0.364,0.291 -0.638,0.711 -0.82,1.258 0.036,0.947 0.547,1.64 1.531,2.078 0.802,3.645 1.732,7.328 2.789,11.047 C 1.094,12.797 0.911,12.469 0.656,12.031 L 0.164,11.047 -0.82,11.32 c 0.292,0.438 0.692,1.622 1.203,3.555 0.437,1.713 1.13,2.68 2.078,2.898 0.255,0.073 0.492,0.11 0.711,0.11 0.073,0 0.227,-0.009 0.465,-0.028 0.237,-0.018 0.391,-0.027 0.465,-0.027 h 0.164 c 0,-0.073 0.018,-0.201 0.054,-0.383 C 4.356,17.19 4.375,17.008 4.375,16.898 3.573,13.471 2.333,8.622 0.656,2.352 2.333,2.242 4.211,1.659 6.289,0.602 c 3.5,1.239 6.216,3.354 8.149,6.343 1.203,1.86 1.804,3.628 1.804,5.305 0,2.734 -1.403,4.685 -4.211,5.852 -1.531,0.583 -3.336,0.875 -5.414,0.875 -4.083,0 -8.276,-0.803 -12.578,-2.407 -4.339,-1.677 -6.544,-3.482 -6.617,-5.414 0.036,-0.328 0.309,-0.656 0.82,-0.984 h 0.055 l -0.492,-0.875 c -0.875,0.364 -1.368,0.893 -1.477,1.586 0,3.208 2.808,5.687 8.422,7.437 3.901,1.203 7.966,1.805 12.195,1.805 6.453,0 10.191,-1.769 11.211,-5.305 0.146,-0.583 0.219,-1.185 0.219,-1.804 0,-2.953 -1.349,-5.925 -4.047,-8.914 -1.823,-2.006 -3.901,-3.555 -6.234,-4.649 0.145,-0.109 0.528,-0.383 1.148,-0.82 1.167,-0.839 1.86,-1.331 2.078,-1.477 1.933,-1.349 3.208,-2.151 3.828,-2.406 1.021,-0.401 2.079,-0.602 3.172,-0.602 0.547,0 2.06,0.219 4.539,0.657 0.11,0.036 0.183,0.054 0.219,0.054 v -0.054 c -0.255,-0.183 -0.601,-0.438 -1.039,-0.766 -1.312,-0.912 -2.479,-1.44 -3.5,-1.586 -0.401,-0.036 -0.802,-0.055 -1.203,-0.055 -2.625,0 -5.25,1.021 -7.875,3.063 -0.292,0.219 -0.73,0.565 -1.313,1.039 -0.62,0.51 -1.093,0.893 -1.421,1.148 -0.11,0.073 -0.31,0.219 -0.602,0.438 -0.219,0.182 -0.383,0.31 -0.492,0.383 -1.495,-0.438 -3.008,-0.657 -4.539,-0.657 -0.62,0 -1.167,0.055 -1.641,0.165 -0.583,-2.079 -1.422,-5.086 -2.516,-9.024 -0.546,-1.895 -0.948,-3.281 -1.203,-4.156 -0.328,0.146 -0.601,0.292 -0.82,0.437 -0.036,0 -0.164,-0.036 -0.383,-0.109"
         style="fill:#08777f;fill-opacity:1;fill-rule:nonzero;stroke:none"
         id="path61" />
    </g>
    <g
       id="g63"
       transform="matrix(0.35277777,0,0,-0.35277777,109.60069,32.41475)">
      <path
         d="M 0,0 C 1.604,0.146 2.425,0.875 2.461,2.188 2.425,2.442 2.333,2.588 2.188,2.625 1.786,2.625 1.222,2.042 0.492,0.875 0.31,0.583 0.146,0.292 0,0 m -0.437,-1.094 c -0.255,-0.583 -0.383,-1.094 -0.383,-1.531 0.073,-1.203 0.856,-1.823 2.351,-1.859 2.152,0 4.886,1.111 8.203,3.336 1.021,0.692 1.787,1.294 2.297,1.804 l 0.547,-0.711 C 11.083,-1.55 8.914,-2.953 6.07,-4.266 3.919,-5.287 2.097,-5.797 0.602,-5.797 c -1.714,0 -2.844,0.547 -3.391,1.641 -0.146,0.364 -0.219,0.729 -0.219,1.093 0,2.079 0.82,3.993 2.461,5.743 C 0.364,3.627 1.294,4.211 2.242,4.43 2.57,4.502 2.771,4.539 2.844,4.539 3.755,4.466 4.229,4.01 4.266,3.172 4.266,3.099 4.211,2.825 4.102,2.352 3.628,0.638 2.497,-0.456 0.711,-0.93 0.31,-1.039 -0.073,-1.094 -0.437,-1.094"
         style="fill:#08777f;fill-opacity:1;fill-rule:nonzero;stroke:none"
         id="path65" />
    </g>
    <g
       id="g67"
       transform="matrix(0.35277777,0,0,-0.35277777,114.80967,29.462988)">
      <path
         d="m 0,0 c -0.911,0.766 -1.513,1.713 -1.805,2.844 0.036,0.036 0.091,0.073 0.164,0.109 l 1.313,1.914 C 0.547,4.393 1.039,3.609 1.148,2.516 V 2.406 2.078 C 1.112,1.969 1.094,1.877 1.094,1.805 0.911,1.221 0.675,0.692 0.383,0.219 0.347,0.146 0.31,0.091 0.273,0.055 Z m -3.063,-9.078 c 0,0.036 0.019,0.145 0.055,0.328 0.11,0.875 0.237,1.549 0.383,2.023 0.401,0.948 0.856,1.44 1.367,1.477 0.583,-0.255 0.93,-0.857 1.039,-1.805 0,-0.51 -0.073,-0.984 -0.218,-1.422 -0.474,-1.349 -0.711,-2.296 -0.711,-2.843 0.073,-0.803 0.419,-1.222 1.039,-1.258 1.567,0 3.864,1.385 6.89,4.156 l 0.711,0.711 0.547,-0.711 c -2.516,-2.516 -5.013,-4.266 -7.492,-5.25 -1.021,-0.401 -1.914,-0.601 -2.68,-0.601 -0.911,0.073 -1.386,0.729 -1.422,1.968 0,0.948 0.164,2.024 0.492,3.227"
         style="fill:#08777f;fill-opacity:1;fill-rule:nonzero;stroke:none"
         id="path69" />
    </g>
    <g
       id="g71"
       transform="matrix(0.35277777,0,0,-0.35277777,117.78073,31.835983)">
      <path
         d="M 0,0 C 0.437,0.692 0.656,1.44 0.656,2.242 0.62,3.153 0.383,3.664 -0.055,3.773 -0.456,3.7 -0.675,3.391 -0.711,2.844 -0.711,2.333 -0.474,1.385 0,0 m -0.109,-10.5 c -1.203,-0.729 -1.841,-1.294 -1.914,-1.695 0.073,-0.073 0.127,-0.11 0.164,-0.11 0.51,0 1.003,0.402 1.476,1.203 0.11,0.219 0.2,0.42 0.274,0.602 M -2.68,3.063 c 0,1.057 0.529,1.804 1.586,2.242 0.365,0.145 0.711,0.218 1.039,0.218 C 1.222,5.45 1.878,4.575 1.914,2.898 1.914,1.877 1.44,0.674 0.492,-0.711 0.419,-0.82 0.364,-0.912 0.328,-0.984 1.239,-3.537 1.786,-5.542 1.969,-7 c 0.036,-0.219 0.073,-0.437 0.109,-0.656 4.703,2.88 7.857,5.104 9.461,6.672 l 0.547,-0.711 C 10.3,-3.482 7.019,-5.925 2.242,-9.023 c -0.073,-1.823 -0.729,-3.373 -1.969,-4.649 -0.729,-0.729 -1.476,-1.094 -2.242,-1.094 -1.677,0.037 -2.534,0.566 -2.57,1.586 0.036,0.949 0.93,1.988 2.68,3.117 0.218,0.146 0.565,0.347 1.039,0.602 0.437,0.292 0.765,0.492 0.984,0.602 v 0.109 c 0,0.109 -0.018,0.31 -0.055,0.602 v 0.656 c -0.328,2.005 -0.82,3.955 -1.476,5.851 -0.073,0.292 -0.219,0.711 -0.438,1.258 -0.583,1.458 -0.875,2.607 -0.875,3.446"
         style="fill:#08777f;fill-opacity:1;fill-rule:nonzero;stroke:none"
         id="path73" />
    </g>
    <g
       id="g75"
       transform="matrix(0.35277777,0,0,-0.35277777,122.29519,32.41475)">
      <path
         d="M 0,0 C 1.604,0.146 2.425,0.875 2.461,2.188 2.425,2.442 2.333,2.588 2.188,2.625 1.786,2.625 1.222,2.042 0.492,0.875 0.31,0.583 0.146,0.292 0,0 m -0.437,-1.094 c -0.255,-0.583 -0.383,-1.094 -0.383,-1.531 0.073,-1.203 0.856,-1.823 2.351,-1.859 2.152,0 4.886,1.111 8.203,3.336 1.021,0.692 1.787,1.294 2.297,1.804 l 0.547,-0.711 C 11.083,-1.55 8.914,-2.953 6.07,-4.266 3.919,-5.287 2.097,-5.797 0.602,-5.797 c -1.714,0 -2.844,0.547 -3.391,1.641 -0.146,0.364 -0.219,0.729 -0.219,1.093 0,2.079 0.82,3.993 2.461,5.743 C 0.364,3.627 1.294,4.211 2.242,4.43 2.57,4.502 2.771,4.539 2.844,4.539 3.755,4.466 4.229,4.01 4.266,3.172 4.266,3.099 4.211,2.825 4.102,2.352 3.628,0.638 2.497,-0.456 0.711,-0.93 0.31,-1.039 -0.073,-1.094 -0.437,-1.094"
         style="fill:#08777f;fill-opacity:1;fill-rule:nonzero;stroke:none"
         id="path77" />
    </g>
    <g
       id="g79"
       transform="matrix(0.35277777,0,0,-0.35277777,128.41091,32.106069)">
      <path
         d="m 0,0 c 1.167,1.057 1.95,1.659 2.352,1.805 0.182,0.072 0.364,0.109 0.546,0.109 0.219,0 0.365,-0.018 0.438,-0.055 1.094,-0.437 1.641,-1.513 1.641,-3.226 0,-0.292 -0.055,-0.748 -0.165,-1.367 -0.073,-0.62 -0.109,-1.058 -0.109,-1.313 0.036,-0.693 0.292,-1.057 0.766,-1.094 1.713,0 4.265,0.966 7.656,2.899 1.385,0.802 2.352,1.476 2.898,2.023 L 16.625,-0.93 C 15.458,-2.097 13.271,-3.482 10.063,-5.086 7.219,-6.508 5.067,-7.219 3.609,-7.219 2.625,-7 2.097,-6.472 2.023,-5.633 c 0,0.255 0.037,0.711 0.11,1.367 0.073,1.021 0.109,1.823 0.109,2.407 0,0.255 -0.036,0.637 -0.109,1.148 -2.406,-1.312 -4.193,-2.698 -5.36,-4.156 L -3.281,-4.922 C -3.317,-4.958 -3.354,-5.004 -3.391,-5.059 -3.427,-5.113 -3.481,-5.187 -3.555,-5.277 -3.628,-5.369 -3.7,-5.451 -3.773,-5.523 -3.847,-5.597 -3.919,-5.679 -3.992,-5.77 -4.065,-5.861 -4.138,-5.952 -4.211,-6.043 -4.284,-6.134 -4.348,-6.226 -4.402,-6.316 -4.457,-6.408 -4.512,-6.48 -4.566,-6.535 -4.621,-6.59 -4.667,-6.653 -4.703,-6.727 l -0.109,-0.054 c -0.183,-0.146 -0.457,-0.328 -0.821,-0.547 -0.255,-0.182 -0.437,-0.31 -0.547,-0.383 -0.073,0.037 -0.218,0.091 -0.437,0.164 -0.62,0.292 -0.948,0.602 -0.985,0.93 0,0.364 0.055,0.711 0.165,1.039 0.62,2.953 1.203,6.434 1.75,10.445 h 0.273 c 0.145,0.036 0.237,0.055 0.273,0.055 1.24,-0.255 1.933,-1.149 2.078,-2.68 0,-0.911 -0.291,-2.279 -0.875,-4.101 -0.073,-0.256 -0.218,-0.675 -0.437,-1.258 -0.146,-0.365 -0.237,-0.62 -0.273,-0.766 0.401,0.364 1.039,0.875 1.914,1.531 C -1.458,-1.367 -0.547,-0.583 0,0"
         style="fill:#08777f;fill-opacity:1;fill-rule:nonzero;stroke:none"
         id="path81" />
    </g>
    <g
       id="g83"
       transform="matrix(0.35277777,0,0,-0.35277777,135.95429,32.106069)">
      <path
         d="m 0,0 c 1.166,1.057 1.95,1.659 2.352,1.805 0.181,0.072 0.364,0.109 0.546,0.109 0.219,0 0.365,-0.018 0.438,-0.055 1.094,-0.437 1.641,-1.513 1.641,-3.226 0,-0.292 -0.055,-0.748 -0.165,-1.367 -0.073,-0.62 -0.109,-1.058 -0.109,-1.313 0.036,-0.693 0.291,-1.057 0.766,-1.094 1.713,0 4.265,0.966 7.656,2.899 1.385,0.802 2.352,1.476 2.898,2.023 L 16.625,-0.93 C 15.458,-2.097 13.271,-3.482 10.063,-5.086 7.219,-6.508 5.067,-7.219 3.609,-7.219 2.625,-7 2.096,-6.472 2.023,-5.633 c 0,0.255 0.037,0.711 0.11,1.367 0.072,1.021 0.109,1.823 0.109,2.407 0,0.255 -0.037,0.637 -0.109,1.148 -2.406,-1.312 -4.194,-2.698 -5.36,-4.156 L -3.281,-4.922 C -3.318,-4.958 -3.354,-5.004 -3.391,-5.059 -3.428,-5.113 -3.482,-5.187 -3.555,-5.277 -3.628,-5.369 -3.701,-5.451 -3.773,-5.523 -3.847,-5.597 -3.92,-5.679 -3.992,-5.77 -4.065,-5.861 -4.139,-5.952 -4.211,-6.043 -4.284,-6.134 -4.348,-6.226 -4.402,-6.316 -4.457,-6.408 -4.512,-6.48 -4.566,-6.535 -4.621,-6.59 -4.667,-6.653 -4.703,-6.727 l -0.109,-0.054 c -0.183,-0.146 -0.457,-0.328 -0.821,-0.547 -0.256,-0.182 -0.437,-0.31 -0.547,-0.383 -0.073,0.037 -0.218,0.091 -0.437,0.164 -0.62,0.292 -0.948,0.602 -0.985,0.93 0,0.364 0.055,0.711 0.165,1.039 4.119,19.141 6.289,29.586 6.507,31.336 h 0.274 c 0.145,0.036 0.236,0.054 0.273,0.054 1.239,-0.255 1.932,-1.148 2.078,-2.679 0,-1.203 -1.823,-9.334 -5.468,-24.391 -0.074,-0.292 -0.128,-0.492 -0.165,-0.601 -0.109,-0.402 -0.437,-1.313 -0.984,-2.735 0.401,0.438 1.877,1.805 4.43,4.102 C -0.311,-0.31 -0.146,-0.146 0,0"
         style="fill:#08777f;fill-opacity:1;fill-rule:nonzero;stroke:none"
         id="path85" />
    </g>
    <g
       id="g87"
       transform="matrix(0.35277777,0,0,-0.35277777,144.03787,32.491902)">
      <path
         d="m 0,0 c 0.146,0.802 0.219,1.458 0.219,1.969 0,0.948 -0.311,1.622 -0.93,2.023 -0.146,0.11 -0.292,0.164 -0.437,0.164 C -1.623,4.083 -1.878,3.7 -1.914,3.008 -1.878,1.877 -1.24,0.875 0,0 m -0.711,-1.969 c -1.787,0.766 -2.953,1.878 -3.5,3.336 -1.495,-2.698 -2.261,-4.575 -2.297,-5.633 0.036,-0.948 0.328,-1.44 0.875,-1.476 1.531,0 2.935,0.893 4.211,2.679 0.291,0.365 0.528,0.73 0.711,1.094 m 0.984,-0.437 c -1.459,-2.771 -3.19,-4.357 -5.195,-4.758 -0.328,-0.073 -0.62,-0.109 -0.875,-0.109 -1.531,0 -2.498,0.875 -2.898,2.625 -0.074,0.437 -0.11,0.875 -0.11,1.312 0.036,2.188 0.766,4.32 2.188,6.399 0.072,0.072 0.364,0.418 0.875,1.039 0.947,0.947 1.603,1.494 1.969,1.64 0.181,0.073 0.345,0.11 0.492,0.11 h 0.109 l 0.109,-0.055 c 0.584,0.401 1.185,0.601 1.805,0.601 1.239,0 2.114,-0.747 2.625,-2.242 0.182,-0.547 0.274,-1.112 0.274,-1.695 0,-0.912 -0.183,-1.933 -0.547,-3.063 1.13,-0.583 2.351,-0.875 3.664,-0.875 1.567,0 3.172,0.583 4.812,1.75 0.328,0.219 0.583,0.419 0.766,0.602 L 10.883,0.164 C 9.533,-1.185 7.656,-2.115 5.25,-2.625 4.557,-2.771 3.9,-2.844 3.281,-2.844 c -1.093,0 -2.096,0.146 -3.008,0.438"
         style="fill:#08777f;fill-opacity:1;fill-rule:nonzero;stroke:none"
         id="path89" />
    </g>
    <g
       id="g91"
       transform="matrix(0.35277777,0,0,-0.35277777,147.18257,39.668743)">
      <path
         d="M 0,0 C 0.219,1.13 0.328,2.297 0.328,3.5 0.328,3.683 0.273,4.484 0.164,5.906 -0.019,4.448 -0.109,3.172 -0.109,2.078 -0.109,1.13 -0.073,0.437 0,0 m -1.805,1.422 c 0,2.261 0.401,5.669 1.203,10.226 -0.073,0.657 -0.109,1.149 -0.109,1.477 0.036,1.386 0.328,2.552 0.875,3.5 0.072,0.073 0.164,0.146 0.273,0.219 l 0.985,4.922 c 0.619,3.098 1.075,5.414 1.367,6.945 0.619,4.849 0.966,7.31 1.039,7.383 0.328,0.036 0.693,0.054 1.094,0.054 0.692,-0.036 1.057,-0.292 1.094,-0.765 0,-0.073 -0.019,-0.237 -0.055,-0.492 C 5.888,34.489 5.852,34.161 5.852,33.906 5.45,32.047 4.83,29.258 3.992,25.539 3.153,21.856 2.533,19.086 2.133,17.227 c 2.916,0.218 4.794,0.419 5.633,0.601 2.515,0.62 4.611,1.75 6.289,3.391 l 0.547,-0.711 C 12.596,18.502 9.461,17.062 5.195,16.187 3.263,15.75 2.114,15.44 1.75,15.258 1.677,14.93 1.586,14.438 1.477,13.781 1.367,13.162 1.275,12.651 1.203,12.25 1.239,11.703 1.349,10.792 1.531,9.516 1.859,6.891 2.023,4.94 2.023,3.664 c 0,-1.969 -0.218,-3.846 -0.656,-5.633 -0.146,-0.073 -0.346,-0.2 -0.601,-0.383 -0.62,-0.4 -1.094,-0.601 -1.422,-0.601 -0.073,0 -0.147,0.027 -0.219,0.082 -0.073,0.055 -0.146,0.128 -0.219,0.219 -0.073,0.091 -0.136,0.191 -0.191,0.3 -0.055,0.11 -0.101,0.228 -0.137,0.356 -0.037,0.128 -0.073,0.255 -0.109,0.383 -0.037,0.128 -0.065,0.255 -0.082,0.383 -0.019,0.127 -0.037,0.237 -0.055,0.328 -0.019,0.091 -0.027,0.173 -0.027,0.246 v 0.109 c -0.074,0.875 -0.11,1.531 -0.11,1.969"
         style="fill:#08777f;fill-opacity:1;fill-rule:nonzero;stroke:none"
         id="path93" />
    </g>
    <g
       id="g95"
       transform="matrix(0.35277777,0,0,-0.35277777,152.58448,32.41475)">
      <path
         d="M 0,0 C 1.604,0.146 2.424,0.875 2.461,2.188 2.424,2.442 2.333,2.588 2.188,2.625 1.786,2.625 1.221,2.042 0.492,0.875 0.31,0.583 0.146,0.292 0,0 m -0.437,-1.094 c -0.256,-0.583 -0.383,-1.094 -0.383,-1.531 0.072,-1.203 0.856,-1.823 2.351,-1.859 2.151,0 4.885,1.111 8.203,3.336 1.021,0.692 1.787,1.294 2.297,1.804 l 0.547,-0.711 C 11.083,-1.55 8.914,-2.953 6.07,-4.266 3.919,-5.287 2.096,-5.797 0.602,-5.797 c -1.714,0 -2.844,0.547 -3.391,1.641 -0.147,0.364 -0.219,0.729 -0.219,1.093 0,2.079 0.82,3.993 2.461,5.743 C 0.364,3.627 1.294,4.211 2.242,4.43 2.57,4.502 2.771,4.539 2.844,4.539 3.755,4.466 4.229,4.01 4.266,3.172 4.266,3.099 4.211,2.825 4.102,2.352 3.627,0.638 2.497,-0.456 0.711,-0.93 0.31,-1.039 -0.073,-1.094 -0.437,-1.094"
         style="fill:#08777f;fill-opacity:1;fill-rule:nonzero;stroke:none"
         id="path97" />
    </g>
    <g
       id="g99"
       transform="matrix(0.35277777,0,0,-0.35277777,159.33686,30.890644)">
      <path
         d="m 0,0 c 0,-1.094 -0.456,-2.644 -1.367,-4.648 -0.656,-1.422 -0.985,-2.571 -0.985,-3.446 0.037,-1.094 0.383,-1.659 1.04,-1.695 1.64,0 4.411,1.841 8.312,5.523 0.219,0.255 0.419,0.456 0.602,0.602 l 0.601,-0.711 c -5.031,-4.995 -8.64,-7.51 -10.828,-7.547 -1.386,0.073 -2.097,0.894 -2.133,2.461 0,1.021 0.455,2.479 1.367,4.375 0.875,1.823 1.313,3.354 1.313,4.594 0,1.094 -0.311,1.987 -0.93,2.68 C -3.154,2.297 -3.264,2.37 -3.336,2.406 -3.519,2.333 -3.609,2.06 -3.609,1.586 -3.646,-0.419 -4.648,-2.406 -6.617,-4.375 h -0.274 l -0.273,0.711 c 1.275,1.312 1.914,2.825 1.914,4.539 -0.037,1.239 -0.42,2.352 -1.148,3.336 0,0.182 0.136,0.383 0.41,0.601 0.273,0.219 0.537,0.401 0.793,0.547 l 0.383,0.164 C -1.641,4.903 -0.037,3.063 0,0"
         style="fill:#08777f;fill-opacity:1;fill-rule:nonzero;stroke:none"
         id="path101" />
    </g>
    <g
       id="g103"
       transform="matrix(0.35277777,0,0,-0.35277777,60.211311,45.023804)">
      <path
         d="m 0,0 c 0.13,1.853 0.248,4.243 0.354,7.173 0.106,2.929 0.16,5.203 0.16,6.824 1.517,-0.007 2.942,-0.011 4.275,-0.011 l 3.742,0.011 C 8.504,13.723 8.49,13.48 8.49,13.269 l -0.82,0.068 c -0.212,0.023 -0.581,0.036 -1.108,0.039 -0.526,0.003 -1.042,0.005 -1.548,0.005 -1.62,0 -2.85,-0.003 -3.691,-0.01 L 1.116,7.485 c 1.032,-0.02 1.979,-0.03 2.841,-0.03 1.025,0 2.291,0.01 3.795,0.03 C 7.725,7.28 7.708,7.055 7.701,6.809 l -3.869,0.03 c -0.452,0 -1.369,-0.01 -2.75,-0.03 L 0.875,0.646 3.817,0.636 c 1.154,0 1.955,0.005 2.403,0.015 0.447,0.01 1.057,0.036 1.829,0.077 C 8.015,0.455 7.998,0.212 7.998,0 6.357,0.007 5.158,0.01 4.399,0.01 Z"
         style="fill:#75ccc3;fill-opacity:1;fill-rule:nonzero;stroke:none"
         id="path105" />
    </g>
    <g
       id="g107"
       transform="matrix(0.35277777,0,0,-0.35277777,60.211311,45.023804)">
      <path
         d="m 0,0 c 0.13,1.853 0.248,4.243 0.354,7.173 0.106,2.929 0.16,5.203 0.16,6.824 1.517,-0.007 2.942,-0.011 4.275,-0.011 l 3.742,0.011 C 8.504,13.723 8.49,13.48 8.49,13.269 l -0.82,0.068 c -0.212,0.023 -0.581,0.036 -1.108,0.039 -0.526,0.003 -1.042,0.005 -1.548,0.005 -1.62,0 -2.85,-0.003 -3.691,-0.01 L 1.116,7.485 c 1.032,-0.02 1.979,-0.03 2.841,-0.03 1.025,0 2.291,0.01 3.795,0.03 C 7.725,7.28 7.708,7.055 7.701,6.809 l -3.869,0.03 c -0.452,0 -1.369,-0.01 -2.75,-0.03 L 0.875,0.646 3.817,0.636 c 1.154,0 1.955,0.005 2.403,0.015 0.447,0.01 1.057,0.036 1.829,0.077 C 8.015,0.455 7.998,0.212 7.998,0 6.357,0.007 5.158,0.01 4.399,0.01 Z"
         style="fill:none;stroke:#75ccc3;stroke-width:0.5;stroke-linecap:butt;stroke-linejoin:miter;stroke-miterlimit:10;stroke-dasharray:none;stroke-opacity:1"
         id="path109" />
    </g>
    <g
       id="g111"
       transform="matrix(0.35277777,0,0,-0.35277777,65.321226,45.023804)">
      <path
         d="m 0,0 c 0.082,1.442 0.16,3.138 0.235,5.086 0.076,1.948 0.113,3.397 0.113,4.348 l -0.01,0.922 c 0.137,-0.006 0.263,-0.01 0.38,-0.01 0.123,0 0.249,0.004 0.379,0.01 L 1.005,8.418 c 0.232,0.465 0.448,0.817 0.646,1.057 0.199,0.239 0.429,0.439 0.692,0.599 0.263,0.161 0.571,0.284 0.923,0.369 0.352,0.086 0.719,0.129 1.102,0.129 0.28,0 0.564,-0.034 0.851,-0.103 0,-0.232 0.014,-0.465 0.041,-0.697 C 4.802,9.888 4.405,9.946 4.07,9.946 3.742,9.946 3.446,9.902 3.183,9.813 2.919,9.724 2.673,9.594 2.444,9.423 2.214,9.252 1.99,9.019 1.771,8.721 1.553,8.424 1.389,8.107 1.279,7.772 1.142,7.383 1.05,6.908 1.002,6.347 0.93,5.472 0.884,4.474 0.864,3.353 0.838,1.842 0.825,0.725 0.825,0 0.646,0.007 0.508,0.01 0.413,0.01 0.316,0.01 0.179,0.007 0,0"
         style="fill:#75ccc3;fill-opacity:1;fill-rule:nonzero;stroke:none"
         id="path113" />
    </g>
    <g
       id="g115"
       transform="matrix(0.35277777,0,0,-0.35277777,65.321226,45.023804)">
      <path
         d="m 0,0 c 0.082,1.442 0.16,3.138 0.235,5.086 0.076,1.948 0.113,3.397 0.113,4.348 l -0.01,0.922 c 0.137,-0.006 0.263,-0.01 0.38,-0.01 0.123,0 0.249,0.004 0.379,0.01 L 1.005,8.418 c 0.232,0.465 0.448,0.817 0.646,1.057 0.199,0.239 0.429,0.439 0.692,0.599 0.263,0.161 0.571,0.284 0.923,0.369 0.352,0.086 0.719,0.129 1.102,0.129 0.28,0 0.564,-0.034 0.851,-0.103 0,-0.232 0.014,-0.465 0.041,-0.697 C 4.802,9.888 4.405,9.946 4.07,9.946 3.742,9.946 3.446,9.902 3.183,9.813 2.919,9.724 2.673,9.594 2.444,9.423 2.214,9.252 1.99,9.019 1.771,8.721 1.553,8.424 1.389,8.107 1.279,7.772 1.142,7.383 1.05,6.908 1.002,6.347 0.93,5.472 0.884,4.474 0.864,3.353 0.838,1.842 0.825,0.725 0.825,0 0.646,0.007 0.508,0.01 0.413,0.01 0.316,0.01 0.179,0.007 0,0 Z"
         style="fill:none;stroke:#75ccc3;stroke-width:0.5;stroke-linecap:butt;stroke-linejoin:miter;stroke-miterlimit:10;stroke-dasharray:none;stroke-opacity:1"
         id="path117" />
    </g>
    <g
       id="g119"
       transform="matrix(0.35277777,0,0,-0.35277777,68.687785,45.027402)">
      <path
         d="m 0,0 c 0.021,0.308 0.031,0.605 0.031,0.893 l 1.262,1.603 4.885,6.413 c 0.137,0.178 0.346,0.462 0.627,0.853 -0.787,0.02 -1.513,0.03 -2.177,0.03 -1.334,0 -2.624,-0.034 -3.869,-0.102 0.02,0.246 0.031,0.475 0.031,0.687 1.148,-0.007 2.303,-0.01 3.465,-0.01 l 3.271,0.01 C 7.506,10.172 7.496,9.912 7.496,9.597 V 9.484 L 0.743,0.625 c 0.635,-0.027 1.328,-0.041 2.08,-0.041 1.776,0 3.2,0.041 4.273,0.124 C 7.068,0.434 7.055,0.198 7.055,0 5.947,0.007 4.847,0.01 3.753,0.01 H 0.749 Z"
         style="fill:#75ccc3;fill-opacity:1;fill-rule:nonzero;stroke:none"
         id="path121" />
    </g>
    <g
       id="g123"
       transform="matrix(0.35277777,0,0,-0.35277777,68.687785,45.027402)">
      <path
         d="m 0,0 c 0.021,0.308 0.031,0.605 0.031,0.893 l 1.262,1.603 4.885,6.413 c 0.137,0.178 0.346,0.462 0.627,0.853 -0.787,0.02 -1.513,0.03 -2.177,0.03 -1.334,0 -2.624,-0.034 -3.869,-0.102 0.02,0.246 0.031,0.475 0.031,0.687 1.148,-0.007 2.303,-0.01 3.465,-0.01 l 3.271,0.01 C 7.506,10.172 7.496,9.912 7.496,9.597 V 9.484 L 0.743,0.625 c 0.635,-0.027 1.328,-0.041 2.08,-0.041 1.776,0 3.2,0.041 4.273,0.124 C 7.068,0.434 7.055,0.198 7.055,0 5.947,0.007 4.847,0.01 3.753,0.01 H 0.749 Z"
         style="fill:none;stroke:#75ccc3;stroke-width:0.5;stroke-linecap:butt;stroke-linejoin:miter;stroke-miterlimit:10;stroke-dasharray:none;stroke-opacity:1"
         id="path125" />
    </g>
    <g
       id="g127"
       transform="matrix(0.35277777,0,0,-0.35277777,73.53347,40.444219)">
      <path
         d="m 0,0 0.031,1.015 c 0.17,-0.007 0.344,-0.01 0.523,-0.01 0.177,0 0.352,0.003 0.523,0.01 L 1.046,0 C 0.875,0.014 0.701,0.021 0.523,0.021 0.345,0.021 0.17,0.014 0,0 m -0.379,-12.981 c 0.077,1.025 0.166,2.813 0.268,5.362 0.101,2.55 0.152,4.215 0.152,4.994 0.175,-0.007 0.311,-0.01 0.405,-0.01 0.101,0 0.24,0.003 0.416,0.01 -0.096,-1.299 -0.19,-3.069 -0.282,-5.312 -0.092,-2.242 -0.138,-3.923 -0.138,-5.044 -0.178,0.006 -0.315,0.01 -0.41,0.01 -0.096,0 -0.233,-0.004 -0.411,-0.01"
         style="fill:#75ccc3;fill-opacity:1;fill-rule:nonzero;stroke:none"
         id="path129" />
    </g>
    <g
       id="g131"
       transform="matrix(0.35277777,0,0,-0.35277777,73.53347,40.444219)">
      <path
         d="m 0,0 0.031,1.015 c 0.17,-0.007 0.344,-0.01 0.523,-0.01 0.177,0 0.352,0.003 0.523,0.01 L 1.046,0 C 0.875,0.014 0.701,0.021 0.523,0.021 0.345,0.021 0.17,0.014 0,0 Z m -0.379,-12.981 c 0.077,1.025 0.166,2.813 0.268,5.362 0.101,2.55 0.152,4.215 0.152,4.994 0.175,-0.007 0.311,-0.01 0.405,-0.01 0.101,0 0.24,0.003 0.416,0.01 -0.096,-1.299 -0.19,-3.069 -0.282,-5.312 -0.092,-2.242 -0.138,-3.923 -0.138,-5.044 -0.178,0.006 -0.315,0.01 -0.41,0.01 -0.096,0 -0.233,-0.004 -0.411,-0.01 z"
         style="fill:none;stroke:#75ccc3;stroke-width:0.5;stroke-linecap:butt;stroke-linejoin:miter;stroke-miterlimit:10;stroke-dasharray:none;stroke-opacity:1"
         id="path133" />
    </g>
    <g
       id="g135"
       transform="matrix(0.35277777,0,0,-0.35277777,76.288876,42.712298)">
      <path
         d="M 0,0 7.301,-0.01 C 7.294,0.461 7.267,0.824 7.219,1.077 7.171,1.33 7.082,1.589 6.952,1.856 6.822,2.123 6.666,2.353 6.484,2.548 6.303,2.743 6.091,2.907 5.848,3.041 5.604,3.173 5.333,3.274 5.031,3.343 4.73,3.411 4.415,3.445 4.087,3.445 3.724,3.445 3.368,3.404 3.019,3.322 2.67,3.24 2.352,3.127 2.064,2.984 1.776,2.84 1.508,2.657 1.258,2.435 1.008,2.213 0.803,1.972 0.642,1.712 0.481,1.453 0.357,1.205 0.272,0.969 0.187,0.733 0.096,0.41 0,0 M 7.178,-5.537 C 7.123,-5.793 7.082,-6.053 7.055,-6.316 6.487,-6.48 5.978,-6.595 5.527,-6.66 5.076,-6.725 4.614,-6.757 4.143,-6.757 c -0.821,0 -1.547,0.111 -2.179,0.333 -0.633,0.221 -1.174,0.591 -1.626,1.106 -0.451,0.515 -0.772,1.094 -0.963,1.736 -0.192,0.642 -0.288,1.325 -0.288,2.049 0,0.95 0.164,1.839 0.493,2.669 C -0.092,1.965 0.448,2.654 1.2,3.2 1.952,3.747 2.885,4.02 3.999,4.02 4.765,4.02 5.458,3.877 6.081,3.594 6.703,3.31 7.186,2.847 7.531,2.205 7.876,1.562 8.049,0.8 8.049,-0.082 c 0,-0.164 -0.007,-0.321 -0.02,-0.472 l -8.121,-0.01 c -0.034,-0.443 -0.052,-0.778 -0.052,-1.003 0,-0.648 0.096,-1.276 0.288,-1.884 0.191,-0.607 0.481,-1.115 0.868,-1.525 0.386,-0.409 0.85,-0.712 1.391,-0.91 0.541,-0.198 1.112,-0.297 1.715,-0.297 0.917,0 1.937,0.215 3.06,0.646"
         style="fill:#75ccc3;fill-opacity:1;fill-rule:nonzero;stroke:none"
         id="path137" />
    </g>
    <g
       id="g139"
       transform="matrix(0.35277777,0,0,-0.35277777,76.288876,42.712298)">
      <path
         d="M 0,0 7.301,-0.01 C 7.294,0.461 7.267,0.824 7.219,1.077 7.171,1.33 7.082,1.589 6.952,1.856 6.822,2.123 6.666,2.353 6.484,2.548 6.303,2.743 6.091,2.907 5.848,3.041 5.604,3.173 5.333,3.274 5.031,3.343 4.73,3.411 4.415,3.445 4.087,3.445 3.724,3.445 3.368,3.404 3.019,3.322 2.67,3.24 2.352,3.127 2.064,2.984 1.776,2.84 1.508,2.657 1.258,2.435 1.008,2.213 0.803,1.972 0.642,1.712 0.481,1.453 0.357,1.205 0.272,0.969 0.187,0.733 0.096,0.41 0,0 Z M 7.178,-5.537 C 7.123,-5.793 7.082,-6.053 7.055,-6.316 6.487,-6.48 5.978,-6.595 5.527,-6.66 5.076,-6.725 4.614,-6.757 4.143,-6.757 c -0.821,0 -1.547,0.111 -2.179,0.333 -0.633,0.221 -1.174,0.591 -1.626,1.106 -0.451,0.515 -0.772,1.094 -0.963,1.736 -0.192,0.642 -0.288,1.325 -0.288,2.049 0,0.95 0.164,1.839 0.493,2.669 C -0.092,1.965 0.448,2.654 1.2,3.2 1.952,3.747 2.885,4.02 3.999,4.02 4.765,4.02 5.458,3.877 6.081,3.594 6.703,3.31 7.186,2.847 7.531,2.205 7.876,1.562 8.049,0.8 8.049,-0.082 c 0,-0.164 -0.007,-0.321 -0.02,-0.472 l -8.121,-0.01 c -0.034,-0.443 -0.052,-0.778 -0.052,-1.003 0,-0.648 0.096,-1.276 0.288,-1.884 0.191,-0.607 0.481,-1.115 0.868,-1.525 0.386,-0.409 0.85,-0.712 1.391,-0.91 0.541,-0.198 1.112,-0.297 1.715,-0.297 0.917,0 1.937,0.215 3.06,0.646 z"
         style="fill:none;stroke:#75ccc3;stroke-width:0.5;stroke-linecap:butt;stroke-linejoin:miter;stroke-miterlimit:10;stroke-dasharray:none;stroke-opacity:1"
         id="path141" />
    </g>
    <g
       id="g143"
       transform="matrix(0.35277777,0,0,-0.35277777,81.181762,45.023804)">
      <path
         d="M 0,0 0.307,6.686 C 0.328,7.335 0.369,9.01 0.43,11.71 l 0.062,2.287 c 0.157,-0.007 0.287,-0.011 0.389,-0.011 0.117,0 0.25,0.004 0.401,0.011 L 1.004,8.008 c 0.157,0.322 0.292,0.575 0.405,0.759 0.113,0.185 0.265,0.375 0.456,0.569 0.192,0.195 0.395,0.362 0.611,0.503 0.215,0.14 0.458,0.263 0.728,0.369 0.27,0.105 0.588,0.193 0.954,0.261 0.365,0.069 0.75,0.103 1.153,0.103 0.595,0 1.159,-0.064 1.692,-0.19 C 7.536,10.255 7.991,10.044 8.367,9.746 8.743,9.449 9.003,9.092 9.146,8.675 9.29,8.258 9.362,7.841 9.362,7.424 9.362,7.287 9.358,7.096 9.351,6.85 9.337,6.474 9.309,5.964 9.267,5.322 L 9.098,1.148 C 9.083,0.882 9.069,0.499 9.056,0 8.879,0.007 8.744,0.01 8.65,0.01 8.548,0.01 8.41,0.007 8.234,0 8.315,0.882 8.377,1.771 8.418,2.666 l 0.143,2.502 c 0.048,0.772 0.072,1.439 0.072,1.999 0,0.65 -0.122,1.18 -0.364,1.59 C 8.026,9.167 7.619,9.476 7.048,9.685 6.478,9.893 5.875,9.998 5.239,9.998 4.814,9.998 4.398,9.95 3.988,9.854 3.604,9.765 3.27,9.646 2.983,9.495 2.743,9.372 2.524,9.218 2.326,9.034 2.114,8.835 1.923,8.603 1.752,8.336 1.567,8.029 1.414,7.687 1.291,7.311 1.174,6.962 1.085,6.494 1.024,5.906 0.977,5.448 0.929,4.553 0.882,3.22 L 0.8,0 C 0.623,0.007 0.489,0.01 0.4,0.01 0.311,0.01 0.178,0.007 0,0"
         style="fill:#75ccc3;fill-opacity:1;fill-rule:nonzero;stroke:none"
         id="path145" />
    </g>
    <g
       id="g147"
       transform="matrix(0.35277777,0,0,-0.35277777,81.181762,45.023804)">
      <path
         d="M 0,0 0.307,6.686 C 0.328,7.335 0.369,9.01 0.43,11.71 l 0.062,2.287 c 0.157,-0.007 0.287,-0.011 0.389,-0.011 0.117,0 0.25,0.004 0.401,0.011 L 1.004,8.008 c 0.157,0.322 0.292,0.575 0.405,0.759 0.113,0.185 0.265,0.375 0.456,0.569 0.192,0.195 0.395,0.362 0.611,0.503 0.215,0.14 0.458,0.263 0.728,0.369 0.27,0.105 0.588,0.193 0.954,0.261 0.365,0.069 0.75,0.103 1.153,0.103 0.595,0 1.159,-0.064 1.692,-0.19 C 7.536,10.255 7.991,10.044 8.367,9.746 8.743,9.449 9.003,9.092 9.146,8.675 9.29,8.258 9.362,7.841 9.362,7.424 9.362,7.287 9.358,7.096 9.351,6.85 9.337,6.474 9.309,5.964 9.267,5.322 L 9.098,1.148 C 9.083,0.882 9.069,0.499 9.056,0 8.879,0.007 8.744,0.01 8.65,0.01 8.548,0.01 8.41,0.007 8.234,0 8.315,0.882 8.377,1.771 8.418,2.666 l 0.143,2.502 c 0.048,0.772 0.072,1.439 0.072,1.999 0,0.65 -0.122,1.18 -0.364,1.59 C 8.026,9.167 7.619,9.476 7.048,9.685 6.478,9.893 5.875,9.998 5.239,9.998 4.814,9.998 4.398,9.95 3.988,9.854 3.604,9.765 3.27,9.646 2.983,9.495 2.743,9.372 2.524,9.218 2.326,9.034 2.114,8.835 1.923,8.603 1.752,8.336 1.567,8.029 1.414,7.687 1.291,7.311 1.174,6.962 1.085,6.494 1.024,5.906 0.977,5.448 0.929,4.553 0.882,3.22 L 0.8,0 C 0.623,0.007 0.489,0.01 0.4,0.01 0.311,0.01 0.178,0.007 0,0 Z"
         style="fill:none;stroke:#75ccc3;stroke-width:0.5;stroke-linecap:butt;stroke-linejoin:miter;stroke-miterlimit:10;stroke-dasharray:none;stroke-opacity:1"
         id="path149" />
    </g>
    <g
       id="g151"
       transform="matrix(0.35277777,0,0,-0.35277777,89.924054,45.023804)">
      <path
         d="M 0,0 C -0.137,0.007 -0.264,0.01 -0.38,0.01 -0.496,0.01 -0.623,0.007 -0.76,0 l 0.084,2.225 C -0.833,1.876 -0.962,1.625 -1.061,1.472 -1.16,1.317 -1.288,1.155 -1.445,0.984 -1.603,0.813 -1.799,0.651 -2.035,0.497 -2.271,0.344 -2.55,0.212 -2.871,0.103 c -0.321,-0.11 -0.651,-0.188 -0.99,-0.236 -0.338,-0.048 -0.678,-0.072 -1.02,-0.072 -0.588,0 -1.137,0.065 -1.646,0.195 -0.51,0.13 -0.961,0.355 -1.354,0.677 -0.393,0.321 -0.661,0.695 -0.805,1.122 -0.144,0.427 -0.215,0.911 -0.215,1.451 0,0.417 0.046,1.447 0.137,3.092 0.092,1.644 0.138,2.985 0.138,4.024 0.178,-0.006 0.312,-0.01 0.401,-0.01 0.089,0 0.222,0.004 0.4,0.01 C -7.879,9.769 -7.96,8.548 -8.066,6.696 -8.172,4.843 -8.225,3.685 -8.225,3.22 -8.225,2.7 -8.157,2.259 -8.02,1.897 -7.883,1.535 -7.646,1.235 -7.307,1 -6.968,0.764 -6.585,0.598 -6.158,0.502 -5.73,0.407 -5.291,0.359 -4.839,0.359 c 0.472,0 0.925,0.059 1.36,0.179 0.434,0.12 0.794,0.269 1.083,0.446 0.287,0.178 0.54,0.397 0.758,0.657 0.253,0.3 0.469,0.649 0.647,1.046 0.157,0.348 0.273,0.78 0.348,1.296 0.076,0.517 0.14,1.452 0.193,2.805 0.046,1.299 0.073,2.488 0.079,3.568 0.185,-0.006 0.322,-0.01 0.411,-0.01 0.089,0 0.222,0.004 0.4,0.01 L 0.062,3.179 0.021,1.63 C 0.007,0.995 0,0.451 0,0"
         style="fill:#75ccc3;fill-opacity:1;fill-rule:nonzero;stroke:none"
         id="path153" />
    </g>
    <g
       id="g155"
       transform="matrix(0.35277777,0,0,-0.35277777,89.924054,45.023804)">
      <path
         d="M 0,0 C -0.137,0.007 -0.264,0.01 -0.38,0.01 -0.496,0.01 -0.623,0.007 -0.76,0 l 0.084,2.225 C -0.833,1.876 -0.962,1.625 -1.061,1.472 -1.16,1.317 -1.288,1.155 -1.445,0.984 -1.603,0.813 -1.799,0.651 -2.035,0.497 -2.271,0.344 -2.55,0.212 -2.871,0.103 c -0.321,-0.11 -0.651,-0.188 -0.99,-0.236 -0.338,-0.048 -0.678,-0.072 -1.02,-0.072 -0.588,0 -1.137,0.065 -1.646,0.195 -0.51,0.13 -0.961,0.355 -1.354,0.677 -0.393,0.321 -0.661,0.695 -0.805,1.122 -0.144,0.427 -0.215,0.911 -0.215,1.451 0,0.417 0.046,1.447 0.137,3.092 0.092,1.644 0.138,2.985 0.138,4.024 0.178,-0.006 0.312,-0.01 0.401,-0.01 0.089,0 0.222,0.004 0.4,0.01 C -7.879,9.769 -7.96,8.548 -8.066,6.696 -8.172,4.843 -8.225,3.685 -8.225,3.22 -8.225,2.7 -8.157,2.259 -8.02,1.897 -7.883,1.535 -7.646,1.235 -7.307,1 -6.968,0.764 -6.585,0.598 -6.158,0.502 -5.73,0.407 -5.291,0.359 -4.839,0.359 c 0.472,0 0.925,0.059 1.36,0.179 0.434,0.12 0.794,0.269 1.083,0.446 0.287,0.178 0.54,0.397 0.758,0.657 0.253,0.3 0.469,0.649 0.647,1.046 0.157,0.348 0.273,0.78 0.348,1.296 0.076,0.517 0.14,1.452 0.193,2.805 0.046,1.299 0.073,2.488 0.079,3.568 0.185,-0.006 0.322,-0.01 0.411,-0.01 0.089,0 0.222,0.004 0.4,0.01 L 0.062,3.179 0.021,1.63 C 0.007,0.995 0,0.451 0,0 Z"
         style="fill:none;stroke:#75ccc3;stroke-width:0.5;stroke-linecap:butt;stroke-linejoin:miter;stroke-miterlimit:10;stroke-dasharray:none;stroke-opacity:1"
         id="path157" />
    </g>
    <g
       id="g159"
       transform="matrix(0.35277777,0,0,-0.35277777,92.280821,45.023804)">
      <path
         d="M 0,0 0.349,6.265 0.44,9.208 c 0.014,0.526 0.021,0.909 0.021,1.148 0.178,-0.006 0.311,-0.01 0.4,-0.01 0.082,0 0.212,0.004 0.39,0.01 L 1.113,8.019 c 0.151,0.321 0.276,0.565 0.374,0.733 0.1,0.167 0.235,0.347 0.406,0.538 0.17,0.191 0.375,0.371 0.61,0.538 0.236,0.168 0.52,0.308 0.851,0.421 0.333,0.112 0.672,0.194 1.022,0.246 0.349,0.051 0.694,0.077 1.036,0.077 0.574,0 1.132,-0.065 1.672,-0.195 C 7.625,10.247 8.073,10.023 8.429,9.705 8.784,9.388 9.028,9.021 9.162,8.608 9.295,8.194 9.362,7.752 9.362,7.28 9.362,7.068 9.352,6.754 9.331,6.337 L 9.117,1.671 9.076,0 C 8.939,0.007 8.806,0.01 8.676,0.01 8.546,0.01 8.415,0.007 8.285,0 8.353,0.854 8.407,1.671 8.447,2.451 L 8.59,5.076 c 0.054,0.97 0.081,1.671 0.081,2.102 0,0.451 -0.066,0.854 -0.195,1.21 C 8.346,8.743 8.122,9.039 7.805,9.274 7.486,9.511 7.109,9.681 6.672,9.787 6.234,9.893 5.783,9.946 5.319,9.946 4.67,9.946 4.096,9.857 3.597,9.68 3.125,9.509 2.712,9.257 2.356,8.926 2.001,8.594 1.711,8.176 1.485,7.67 1.314,7.301 1.185,6.785 1.096,6.122 1.015,5.547 0.948,4.609 0.897,3.307 0.847,2.005 0.821,0.902 0.821,0 0.644,0.007 0.507,0.01 0.411,0.01 0.315,0.01 0.178,0.007 0,0"
         style="fill:#75ccc3;fill-opacity:1;fill-rule:nonzero;stroke:none"
         id="path161" />
    </g>
    <g
       id="g163"
       transform="matrix(0.35277777,0,0,-0.35277777,92.280821,45.023804)">
      <path
         d="M 0,0 0.349,6.265 0.44,9.208 c 0.014,0.526 0.021,0.909 0.021,1.148 0.178,-0.006 0.311,-0.01 0.4,-0.01 0.082,0 0.212,0.004 0.39,0.01 L 1.113,8.019 c 0.151,0.321 0.276,0.565 0.374,0.733 0.1,0.167 0.235,0.347 0.406,0.538 0.17,0.191 0.375,0.371 0.61,0.538 0.236,0.168 0.52,0.308 0.851,0.421 0.333,0.112 0.672,0.194 1.022,0.246 0.349,0.051 0.694,0.077 1.036,0.077 0.574,0 1.132,-0.065 1.672,-0.195 C 7.625,10.247 8.073,10.023 8.429,9.705 8.784,9.388 9.028,9.021 9.162,8.608 9.295,8.194 9.362,7.752 9.362,7.28 9.362,7.068 9.352,6.754 9.331,6.337 L 9.117,1.671 9.076,0 C 8.939,0.007 8.806,0.01 8.676,0.01 8.546,0.01 8.415,0.007 8.285,0 8.353,0.854 8.407,1.671 8.447,2.451 L 8.59,5.076 c 0.054,0.97 0.081,1.671 0.081,2.102 0,0.451 -0.066,0.854 -0.195,1.21 C 8.346,8.743 8.122,9.039 7.805,9.274 7.486,9.511 7.109,9.681 6.672,9.787 6.234,9.893 5.783,9.946 5.319,9.946 4.67,9.946 4.096,9.857 3.597,9.68 3.125,9.509 2.712,9.257 2.356,8.926 2.001,8.594 1.711,8.176 1.485,7.67 1.314,7.301 1.185,6.785 1.096,6.122 1.015,5.547 0.948,4.609 0.897,3.307 0.847,2.005 0.821,0.902 0.821,0 0.644,0.007 0.507,0.01 0.411,0.01 0.315,0.01 0.178,0.007 0,0 Z"
         style="fill:none;stroke:#75ccc3;stroke-width:0.5;stroke-linecap:butt;stroke-linejoin:miter;stroke-miterlimit:10;stroke-dasharray:none;stroke-opacity:1"
         id="path165" />
    </g>
    <g
       id="g167"
       transform="matrix(0.35277777,0,0,-0.35277777,100.96385,41.590923)">
      <path
         d="m 0,0 c -0.649,0.123 -1.169,0.198 -1.559,0.226 -0.389,0.027 -0.734,0.041 -1.035,0.041 -0.785,0 -1.513,-0.089 -2.182,-0.267 -0.67,-0.178 -1.284,-0.513 -1.841,-1.005 -0.557,-0.492 -0.989,-1.124 -1.296,-1.897 -0.308,-0.772 -0.462,-1.572 -0.462,-2.399 0,-0.793 0.142,-1.511 0.426,-2.154 0.283,-0.642 0.724,-1.126 1.322,-1.451 0.599,-0.324 1.26,-0.487 1.984,-0.487 0.493,0 0.951,0.055 1.375,0.164 0.329,0.083 0.637,0.214 0.928,0.396 0.29,0.18 0.569,0.421 0.836,0.722 0.267,0.301 0.5,0.654 0.702,1.062 0.201,0.406 0.347,0.821 0.436,1.245 0.115,0.595 0.197,1.357 0.244,2.287 z m -8.262,-13.474 c 0.903,-0.259 1.648,-0.434 2.236,-0.523 0.588,-0.088 1.128,-0.133 1.62,-0.133 0.581,0 1.121,0.075 1.62,0.226 0.458,0.13 0.848,0.311 1.169,0.543 0.287,0.212 0.509,0.448 0.666,0.708 0.184,0.307 0.323,0.69 0.415,1.148 0.093,0.458 0.149,0.95 0.17,1.477 0.049,0.847 0.084,1.804 0.105,2.871 -0.136,-0.328 -0.255,-0.587 -0.353,-0.774 -0.1,-0.189 -0.239,-0.387 -0.416,-0.595 -0.178,-0.209 -0.385,-0.397 -0.62,-0.564 -0.237,-0.168 -0.506,-0.318 -0.811,-0.452 -0.305,-0.132 -0.642,-0.237 -1.011,-0.312 -0.369,-0.075 -0.752,-0.113 -1.148,-0.113 -0.636,0 -1.226,0.082 -1.77,0.246 -0.544,0.164 -1.029,0.441 -1.457,0.831 -0.426,0.39 -0.75,0.89 -0.968,1.502 -0.219,0.612 -0.329,1.256 -0.329,1.933 0,0.923 0.165,1.808 0.493,2.656 0.328,0.847 0.794,1.546 1.399,2.096 0.605,0.551 1.304,0.946 2.097,1.185 0.793,0.239 1.651,0.359 2.574,0.359 0.936,0 2.071,-0.12 3.404,-0.359 L 0.719,-0.697 C 0.697,-0.923 0.677,-1.217 0.655,-1.579 L 0.428,-6.275 0.312,-10.572 c -0.028,-0.512 -0.096,-0.967 -0.206,-1.364 -0.116,-0.423 -0.293,-0.803 -0.533,-1.138 -0.24,-0.335 -0.54,-0.618 -0.902,-0.851 -0.363,-0.232 -0.821,-0.417 -1.375,-0.554 -0.602,-0.15 -1.278,-0.225 -2.03,-0.225 -0.554,0 -1.094,0.029 -1.62,0.087 -0.527,0.058 -1.139,0.169 -1.836,0.333 -0.014,0.281 -0.038,0.551 -0.072,0.81"
         style="fill:#75ccc3;fill-opacity:1;fill-rule:nonzero;stroke:none"
         id="path169" />
    </g>
    <g
       id="g171"
       transform="matrix(0.35277777,0,0,-0.35277777,100.96385,41.590923)">
      <path
         d="m 0,0 c -0.649,0.123 -1.169,0.198 -1.559,0.226 -0.389,0.027 -0.734,0.041 -1.035,0.041 -0.785,0 -1.513,-0.089 -2.182,-0.267 -0.67,-0.178 -1.284,-0.513 -1.841,-1.005 -0.557,-0.492 -0.989,-1.124 -1.296,-1.897 -0.308,-0.772 -0.462,-1.572 -0.462,-2.399 0,-0.793 0.142,-1.511 0.426,-2.154 0.283,-0.642 0.724,-1.126 1.322,-1.451 0.599,-0.324 1.26,-0.487 1.984,-0.487 0.493,0 0.951,0.055 1.375,0.164 0.329,0.083 0.637,0.214 0.928,0.396 0.29,0.18 0.569,0.421 0.836,0.722 0.267,0.301 0.5,0.654 0.702,1.062 0.201,0.406 0.347,0.821 0.436,1.245 0.115,0.595 0.197,1.357 0.244,2.287 z m -8.262,-13.474 c 0.903,-0.259 1.648,-0.434 2.236,-0.523 0.588,-0.088 1.128,-0.133 1.62,-0.133 0.581,0 1.121,0.075 1.62,0.226 0.458,0.13 0.848,0.311 1.169,0.543 0.287,0.212 0.509,0.448 0.666,0.708 0.184,0.307 0.323,0.69 0.415,1.148 0.093,0.458 0.149,0.95 0.17,1.477 0.049,0.847 0.084,1.804 0.105,2.871 -0.136,-0.328 -0.255,-0.587 -0.353,-0.774 -0.1,-0.189 -0.239,-0.387 -0.416,-0.595 -0.178,-0.209 -0.385,-0.397 -0.62,-0.564 -0.237,-0.168 -0.506,-0.318 -0.811,-0.452 -0.305,-0.132 -0.642,-0.237 -1.011,-0.312 -0.369,-0.075 -0.752,-0.113 -1.148,-0.113 -0.636,0 -1.226,0.082 -1.77,0.246 -0.544,0.164 -1.029,0.441 -1.457,0.831 -0.426,0.39 -0.75,0.89 -0.968,1.502 -0.219,0.612 -0.329,1.256 -0.329,1.933 0,0.923 0.165,1.808 0.493,2.656 0.328,0.847 0.794,1.546 1.399,2.096 0.605,0.551 1.304,0.946 2.097,1.185 0.793,0.239 1.651,0.359 2.574,0.359 0.936,0 2.071,-0.12 3.404,-0.359 L 0.719,-0.697 C 0.697,-0.923 0.677,-1.217 0.655,-1.579 L 0.428,-6.275 0.312,-10.572 c -0.028,-0.512 -0.096,-0.967 -0.206,-1.364 -0.116,-0.423 -0.293,-0.803 -0.533,-1.138 -0.24,-0.335 -0.54,-0.618 -0.902,-0.851 -0.363,-0.232 -0.821,-0.417 -1.375,-0.554 -0.602,-0.15 -1.278,-0.225 -2.03,-0.225 -0.554,0 -1.094,0.029 -1.62,0.087 -0.527,0.058 -1.139,0.169 -1.836,0.333 -0.014,0.281 -0.038,0.551 -0.072,0.81 z"
         style="fill:none;stroke:#75ccc3;stroke-width:0.5;stroke-linecap:butt;stroke-linejoin:miter;stroke-miterlimit:10;stroke-dasharray:none;stroke-opacity:1"
         id="path173" />
    </g>
    <g
       id="g175"
       transform="matrix(0.35277777,0,0,-0.35277777,103.23898,44.951449)">
      <path
         d="M 0,0 C -0.014,0.328 -0.041,0.619 -0.082,0.872 0.458,0.632 0.967,0.465 1.445,0.369 1.924,0.273 2.361,0.226 2.758,0.226 c 0.526,0 0.975,0.075 1.348,0.225 0.373,0.15 0.655,0.372 0.846,0.666 C 5.144,1.41 5.239,1.718 5.239,2.039 5.239,2.182 5.225,2.32 5.193,2.454 5.163,2.587 5.113,2.72 5.045,2.853 4.977,2.986 4.899,3.109 4.814,3.222 4.729,3.334 4.609,3.462 4.455,3.606 4.302,3.75 4.122,3.91 3.917,4.087 3.712,4.265 3.391,4.535 2.953,4.896 2.516,5.259 2.154,5.571 1.871,5.834 1.587,6.097 1.352,6.363 1.164,6.633 0.976,6.903 0.842,7.15 0.764,7.375 0.685,7.601 0.646,7.83 0.646,8.062 c 0,0.396 0.125,0.78 0.375,1.152 0.249,0.372 0.607,0.658 1.076,0.856 0.467,0.198 1.061,0.297 1.779,0.297 0.602,0 1.278,-0.079 2.03,-0.236 C 5.913,9.83 5.934,9.54 5.968,9.259 5.53,9.444 5.139,9.568 4.794,9.634 4.448,9.698 4.098,9.731 3.742,9.731 3.298,9.731 2.888,9.664 2.512,9.531 2.136,9.398 1.854,9.203 1.666,8.947 1.478,8.691 1.384,8.413 1.384,8.112 1.384,7.949 1.404,7.795 1.445,7.651 1.486,7.508 1.552,7.363 1.641,7.216 1.729,7.069 1.844,6.919 1.984,6.765 2.124,6.612 2.305,6.434 2.527,6.233 2.749,6.031 3.071,5.755 3.491,5.403 3.912,5.051 4.225,4.785 4.43,4.604 4.635,4.423 4.811,4.257 4.958,4.107 5.104,3.957 5.245,3.792 5.378,3.61 5.512,3.429 5.619,3.253 5.701,3.083 5.783,2.912 5.845,2.74 5.886,2.565 5.927,2.392 5.947,2.216 5.947,2.038 5.947,1.608 5.82,1.202 5.567,0.819 5.314,0.437 4.947,0.136 4.466,-0.083 3.983,-0.301 3.404,-0.41 2.728,-0.41 c -0.253,0 -0.57,0.02 -0.949,0.061 -0.38,0.041 -0.684,0.084 -0.913,0.128 C 0.637,-0.176 0.349,-0.103 0,0"
         style="fill:#75ccc3;fill-opacity:1;fill-rule:nonzero;stroke:none"
         id="path177" />
    </g>
    <g
       id="g179"
       transform="matrix(0.35277777,0,0,-0.35277777,103.23898,44.951449)">
      <path
         d="M 0,0 C -0.014,0.328 -0.041,0.619 -0.082,0.872 0.458,0.632 0.967,0.465 1.445,0.369 1.924,0.273 2.361,0.226 2.758,0.226 c 0.526,0 0.975,0.075 1.348,0.225 0.373,0.15 0.655,0.372 0.846,0.666 C 5.144,1.41 5.239,1.718 5.239,2.039 5.239,2.182 5.225,2.32 5.193,2.454 5.163,2.587 5.113,2.72 5.045,2.853 4.977,2.986 4.899,3.109 4.814,3.222 4.729,3.334 4.609,3.462 4.455,3.606 4.302,3.75 4.122,3.91 3.917,4.087 3.712,4.265 3.391,4.535 2.953,4.896 2.516,5.259 2.154,5.571 1.871,5.834 1.587,6.097 1.352,6.363 1.164,6.633 0.976,6.903 0.842,7.15 0.764,7.375 0.685,7.601 0.646,7.83 0.646,8.062 c 0,0.396 0.125,0.78 0.375,1.152 0.249,0.372 0.607,0.658 1.076,0.856 0.467,0.198 1.061,0.297 1.779,0.297 0.602,0 1.278,-0.079 2.03,-0.236 C 5.913,9.83 5.934,9.54 5.968,9.259 5.53,9.444 5.139,9.568 4.794,9.634 4.448,9.698 4.098,9.731 3.742,9.731 3.298,9.731 2.888,9.664 2.512,9.531 2.136,9.398 1.854,9.203 1.666,8.947 1.478,8.691 1.384,8.413 1.384,8.112 1.384,7.949 1.404,7.795 1.445,7.651 1.486,7.508 1.552,7.363 1.641,7.216 1.729,7.069 1.844,6.919 1.984,6.765 2.124,6.612 2.305,6.434 2.527,6.233 2.749,6.031 3.071,5.755 3.491,5.403 3.912,5.051 4.225,4.785 4.43,4.604 4.635,4.423 4.811,4.257 4.958,4.107 5.104,3.957 5.245,3.792 5.378,3.61 5.512,3.429 5.619,3.253 5.701,3.083 5.783,2.912 5.845,2.74 5.886,2.565 5.927,2.392 5.947,2.216 5.947,2.038 5.947,1.608 5.82,1.202 5.567,0.819 5.314,0.437 4.947,0.136 4.466,-0.083 3.983,-0.301 3.404,-0.41 2.728,-0.41 c -0.253,0 -0.57,0.02 -0.949,0.061 -0.38,0.041 -0.684,0.084 -0.913,0.128 C 0.637,-0.176 0.349,-0.103 0,0 Z"
         style="fill:none;stroke:#75ccc3;stroke-width:0.5;stroke-linecap:butt;stroke-linejoin:miter;stroke-miterlimit:10;stroke-dasharray:none;stroke-opacity:1"
         id="path181" />
    </g>
    <g
       id="g183"
       transform="matrix(0.35277777,0,0,-0.35277777,107.88503,41.717535)">
      <path
         d="m 0,0 c -0.053,-1.388 -0.092,-2.29 -0.118,-2.707 -0.028,-0.417 -0.04,-0.906 -0.04,-1.466 0,-0.73 0.054,-1.378 0.164,-1.944 0.109,-0.567 0.321,-1.071 0.637,-1.515 0.314,-0.443 0.722,-0.783 1.225,-1.018 0.503,-0.235 1.06,-0.353 1.668,-0.353 0.616,0 1.191,0.118 1.725,0.354 0.533,0.235 0.977,0.606 1.334,1.111 0.355,0.505 0.628,1.098 0.815,1.777 0.189,0.679 0.282,1.357 0.282,2.033 0,0.956 -0.182,1.774 -0.548,2.453 -0.368,0.68 -0.857,1.167 -1.469,1.46 C 5.062,0.479 4.341,0.625 3.513,0.625 3.006,0.625 2.479,0.581 1.932,0.492 1.384,0.403 0.74,0.239 0,0 m -1.105,-9.372 0.08,1.015 0.291,8.449 0.11,4.533 c 0.178,-0.007 0.321,-0.011 0.431,-0.011 0.117,0 0.263,0.004 0.441,0.011 C 0.171,3.852 0.119,3.086 0.091,2.328 L 0.018,0.728 C 0.771,0.919 1.403,1.046 1.913,1.107 2.423,1.169 2.929,1.2 3.429,1.2 4.298,1.2 5.057,1.092 5.703,0.877 6.351,0.661 6.885,0.303 7.306,-0.2 7.728,-0.702 8.025,-1.261 8.2,-1.876 8.374,-2.492 8.462,-3.138 8.462,-3.814 8.462,-4.573 8.359,-5.31 8.153,-6.024 7.948,-6.739 7.629,-7.381 7.194,-7.952 6.76,-8.523 6.236,-8.937 5.624,-9.192 5.012,-9.449 4.332,-9.577 3.587,-9.577 c -0.432,0 -0.844,0.051 -1.237,0.154 -0.394,0.102 -0.739,0.242 -1.037,0.42 -0.297,0.178 -0.545,0.374 -0.744,0.59 -0.198,0.215 -0.355,0.431 -0.471,0.645 -0.117,0.216 -0.237,0.508 -0.36,0.877 l -0.022,-2.481 c -0.176,0.007 -0.315,0.01 -0.416,0.01 -0.095,0 -0.23,-0.003 -0.405,-0.01"
         style="fill:#75ccc3;fill-opacity:1;fill-rule:nonzero;stroke:none"
         id="path185" />
    </g>
    <g
       id="g187"
       transform="matrix(0.35277777,0,0,-0.35277777,107.88503,41.717535)">
      <path
         d="m 0,0 c -0.053,-1.388 -0.092,-2.29 -0.118,-2.707 -0.028,-0.417 -0.04,-0.906 -0.04,-1.466 0,-0.73 0.054,-1.378 0.164,-1.944 0.109,-0.567 0.321,-1.071 0.637,-1.515 0.314,-0.443 0.722,-0.783 1.225,-1.018 0.503,-0.235 1.06,-0.353 1.668,-0.353 0.616,0 1.191,0.118 1.725,0.354 0.533,0.235 0.977,0.606 1.334,1.111 0.355,0.505 0.628,1.098 0.815,1.777 0.189,0.679 0.282,1.357 0.282,2.033 0,0.956 -0.182,1.774 -0.548,2.453 -0.368,0.68 -0.857,1.167 -1.469,1.46 C 5.062,0.479 4.341,0.625 3.513,0.625 3.006,0.625 2.479,0.581 1.932,0.492 1.384,0.403 0.74,0.239 0,0 Z m -1.105,-9.372 0.08,1.015 0.291,8.449 0.11,4.533 c 0.178,-0.007 0.321,-0.011 0.431,-0.011 0.117,0 0.263,0.004 0.441,0.011 C 0.171,3.852 0.119,3.086 0.091,2.328 L 0.018,0.728 C 0.771,0.919 1.403,1.046 1.913,1.107 2.423,1.169 2.929,1.2 3.429,1.2 4.298,1.2 5.057,1.092 5.703,0.877 6.351,0.661 6.885,0.303 7.306,-0.2 7.728,-0.702 8.025,-1.261 8.2,-1.876 8.374,-2.492 8.462,-3.138 8.462,-3.814 8.462,-4.573 8.359,-5.31 8.153,-6.024 7.948,-6.739 7.629,-7.381 7.194,-7.952 6.76,-8.523 6.236,-8.937 5.624,-9.192 5.012,-9.449 4.332,-9.577 3.587,-9.577 c -0.432,0 -0.844,0.051 -1.237,0.154 -0.394,0.102 -0.739,0.242 -1.037,0.42 -0.297,0.178 -0.545,0.374 -0.744,0.59 -0.198,0.215 -0.355,0.431 -0.471,0.645 -0.117,0.216 -0.237,0.508 -0.36,0.877 l -0.022,-2.481 c -0.176,0.007 -0.315,0.01 -0.416,0.01 -0.095,0 -0.23,-0.003 -0.405,-0.01 z"
         style="fill:none;stroke:#75ccc3;stroke-width:0.5;stroke-linecap:butt;stroke-linejoin:miter;stroke-miterlimit:10;stroke-dasharray:none;stroke-opacity:1"
         id="path189" />
    </g>
    <g
       id="g191"
       transform="matrix(0.35277777,0,0,-0.35277777,113.19843,42.712298)">
      <path
         d="M 0,0 7.301,-0.01 C 7.294,0.461 7.267,0.824 7.219,1.077 7.171,1.33 7.082,1.589 6.952,1.856 6.822,2.123 6.666,2.353 6.484,2.548 6.303,2.743 6.091,2.907 5.848,3.041 5.604,3.173 5.333,3.274 5.031,3.343 4.73,3.411 4.415,3.445 4.087,3.445 3.725,3.445 3.368,3.404 3.02,3.322 2.67,3.24 2.352,3.127 2.064,2.984 1.776,2.84 1.508,2.657 1.258,2.435 1.008,2.213 0.803,1.972 0.642,1.712 0.481,1.453 0.357,1.205 0.272,0.969 0.187,0.733 0.096,0.41 0,0 M 7.178,-5.537 C 7.123,-5.793 7.082,-6.053 7.055,-6.316 6.487,-6.48 5.979,-6.595 5.527,-6.66 5.076,-6.725 4.614,-6.757 4.143,-6.757 c -0.821,0 -1.547,0.111 -2.179,0.333 -0.633,0.221 -1.174,0.591 -1.625,1.106 -0.451,0.515 -0.773,1.094 -0.964,1.736 -0.191,0.642 -0.287,1.325 -0.287,2.049 0,0.95 0.164,1.839 0.492,2.669 C -0.092,1.965 0.448,2.654 1.2,3.2 1.952,3.747 2.885,4.02 3.999,4.02 4.765,4.02 5.459,3.877 6.081,3.594 6.703,3.31 7.187,2.847 7.531,2.205 7.877,1.562 8.05,0.8 8.05,-0.082 8.05,-0.246 8.043,-0.403 8.029,-0.554 l -8.121,-0.01 c -0.034,-0.443 -0.052,-0.778 -0.052,-1.003 0,-0.648 0.096,-1.276 0.289,-1.884 0.191,-0.607 0.48,-1.115 0.867,-1.525 0.386,-0.409 0.85,-0.712 1.391,-0.91 0.541,-0.198 1.113,-0.297 1.715,-0.297 0.917,0 1.937,0.215 3.06,0.646"
         style="fill:#75ccc3;fill-opacity:1;fill-rule:nonzero;stroke:none"
         id="path193" />
    </g>
    <g
       id="g195"
       transform="matrix(0.35277777,0,0,-0.35277777,113.19843,42.712298)">
      <path
         d="M 0,0 7.301,-0.01 C 7.294,0.461 7.267,0.824 7.219,1.077 7.171,1.33 7.082,1.589 6.952,1.856 6.822,2.123 6.666,2.353 6.484,2.548 6.303,2.743 6.091,2.907 5.848,3.041 5.604,3.173 5.333,3.274 5.031,3.343 4.73,3.411 4.415,3.445 4.087,3.445 3.725,3.445 3.368,3.404 3.02,3.322 2.67,3.24 2.352,3.127 2.064,2.984 1.776,2.84 1.508,2.657 1.258,2.435 1.008,2.213 0.803,1.972 0.642,1.712 0.481,1.453 0.357,1.205 0.272,0.969 0.187,0.733 0.096,0.41 0,0 Z M 7.178,-5.537 C 7.123,-5.793 7.082,-6.053 7.055,-6.316 6.487,-6.48 5.979,-6.595 5.527,-6.66 5.076,-6.725 4.614,-6.757 4.143,-6.757 c -0.821,0 -1.547,0.111 -2.179,0.333 -0.633,0.221 -1.174,0.591 -1.625,1.106 -0.451,0.515 -0.773,1.094 -0.964,1.736 -0.191,0.642 -0.287,1.325 -0.287,2.049 0,0.95 0.164,1.839 0.492,2.669 C -0.092,1.965 0.448,2.654 1.2,3.2 1.952,3.747 2.885,4.02 3.999,4.02 4.765,4.02 5.459,3.877 6.081,3.594 6.703,3.31 7.187,2.847 7.531,2.205 7.877,1.562 8.05,0.8 8.05,-0.082 8.05,-0.246 8.043,-0.403 8.029,-0.554 l -8.121,-0.01 c -0.034,-0.443 -0.052,-0.778 -0.052,-1.003 0,-0.648 0.096,-1.276 0.289,-1.884 0.191,-0.607 0.48,-1.115 0.867,-1.525 0.386,-0.409 0.85,-0.712 1.391,-0.91 0.541,-0.198 1.113,-0.297 1.715,-0.297 0.917,0 1.937,0.215 3.06,0.646 z"
         style="fill:none;stroke:#75ccc3;stroke-width:0.5;stroke-linecap:butt;stroke-linejoin:miter;stroke-miterlimit:10;stroke-dasharray:none;stroke-opacity:1"
         id="path197" />
    </g>
    <g
       id="g199"
       transform="matrix(0.35277777,0,0,-0.35277777,118.04083,45.023804)">
      <path
         d="m 0,0 c 0.082,1.442 0.16,3.138 0.235,5.086 0.076,1.948 0.113,3.397 0.113,4.348 l -0.01,0.922 c 0.137,-0.006 0.263,-0.01 0.38,-0.01 0.123,0 0.249,0.004 0.379,0.01 L 1.005,8.418 c 0.232,0.465 0.447,0.817 0.646,1.057 0.199,0.239 0.429,0.439 0.692,0.599 0.263,0.161 0.571,0.284 0.923,0.369 0.352,0.086 0.719,0.129 1.102,0.129 0.28,0 0.564,-0.034 0.851,-0.103 0,-0.232 0.013,-0.465 0.041,-0.697 C 4.802,9.888 4.405,9.946 4.069,9.946 3.741,9.946 3.445,9.902 3.183,9.813 2.919,9.724 2.673,9.594 2.443,9.423 2.214,9.252 1.99,9.019 1.771,8.721 1.553,8.424 1.389,8.107 1.278,7.772 1.142,7.383 1.05,6.908 1.002,6.347 0.93,5.472 0.884,4.474 0.864,3.353 0.838,1.842 0.824,0.725 0.824,0 0.646,0.007 0.508,0.01 0.412,0.01 0.315,0.01 0.179,0.007 0,0"
         style="fill:#75ccc3;fill-opacity:1;fill-rule:nonzero;stroke:none"
         id="path201" />
    </g>
    <g
       id="g203"
       transform="matrix(0.35277777,0,0,-0.35277777,118.04083,45.023804)">
      <path
         d="m 0,0 c 0.082,1.442 0.16,3.138 0.235,5.086 0.076,1.948 0.113,3.397 0.113,4.348 l -0.01,0.922 c 0.137,-0.006 0.263,-0.01 0.38,-0.01 0.123,0 0.249,0.004 0.379,0.01 L 1.005,8.418 c 0.232,0.465 0.447,0.817 0.646,1.057 0.199,0.239 0.429,0.439 0.692,0.599 0.263,0.161 0.571,0.284 0.923,0.369 0.352,0.086 0.719,0.129 1.102,0.129 0.28,0 0.564,-0.034 0.851,-0.103 0,-0.232 0.013,-0.465 0.041,-0.697 C 4.802,9.888 4.405,9.946 4.069,9.946 3.741,9.946 3.445,9.902 3.183,9.813 2.919,9.724 2.673,9.594 2.443,9.423 2.214,9.252 1.99,9.019 1.771,8.721 1.553,8.424 1.389,8.107 1.278,7.772 1.142,7.383 1.05,6.908 1.002,6.347 0.93,5.472 0.884,4.474 0.864,3.353 0.838,1.842 0.824,0.725 0.824,0 0.646,0.007 0.508,0.01 0.412,0.01 0.315,0.01 0.179,0.007 0,0 Z"
         style="fill:none;stroke:#75ccc3;stroke-width:0.5;stroke-linecap:butt;stroke-linejoin:miter;stroke-miterlimit:10;stroke-dasharray:none;stroke-opacity:1"
         id="path205" />
    </g>
    <g
       id="g207"
       transform="matrix(0.35277777,0,0,-0.35277777,121.9283,41.753695)">
      <path
         d="M 0,0 C 0.048,0.232 0.085,0.499 0.112,0.8 0.81,0.991 1.415,1.123 1.928,1.194 2.44,1.267 2.96,1.302 3.486,1.302 4.095,1.302 4.66,1.249 5.184,1.144 5.706,1.037 6.133,0.859 6.465,0.61 6.796,0.36 7.015,0.075 7.121,-0.246 7.227,-0.567 7.28,-0.896 7.28,-1.23 7.28,-1.572 7.268,-2.005 7.244,-2.527 7.221,-3.051 7.188,-3.613 7.147,-4.214 7.106,-4.816 7.069,-5.566 7.035,-6.465 7.001,-7.364 6.984,-8.012 6.984,-8.408 V -9.27 c -0.178,0.007 -0.322,0.011 -0.431,0.011 -0.116,0 -0.261,-0.004 -0.432,-0.011 0.096,1.046 0.162,1.894 0.2,2.543 0.037,0.65 0.069,1.349 0.092,2.097 0.024,0.749 0.057,1.448 0.098,2.097 C 6.299,-2.71 6.137,-2.842 6.023,-2.927 5.911,-3.012 5.788,-3.089 5.654,-3.157 5.521,-3.226 5.36,-3.295 5.173,-3.367 4.984,-3.439 4.812,-3.5 4.654,-3.551 4.497,-3.603 4.116,-3.71 3.512,-3.874 2.906,-4.038 2.475,-4.161 2.215,-4.242 1.626,-4.434 1.172,-4.614 0.851,-4.785 0.502,-4.969 0.212,-5.174 -0.021,-5.399 -0.226,-5.597 -0.376,-5.805 -0.472,-6.024 -0.581,-6.283 -0.636,-6.56 -0.636,-6.853 c 0,-0.443 0.133,-0.829 0.4,-1.157 0.266,-0.327 0.603,-0.558 1.01,-0.691 0.407,-0.133 0.897,-0.199 1.471,-0.199 0.287,0 0.565,0.015 0.831,0.046 0.267,0.031 0.518,0.072 0.754,0.123 0.235,0.051 0.575,0.148 1.02,0.292 C 4.788,-8.699 4.737,-8.958 4.696,-9.218 4.143,-9.328 3.692,-9.397 3.348,-9.429 3.002,-9.459 2.676,-9.475 2.368,-9.475 c -0.574,0 -1.103,0.045 -1.589,0.134 -0.485,0.088 -0.892,0.262 -1.22,0.522 -0.329,0.259 -0.571,0.56 -0.728,0.901 -0.157,0.341 -0.236,0.7 -0.236,1.075 0,0.287 0.048,0.565 0.143,0.835 0.096,0.27 0.242,0.528 0.441,0.774 0.164,0.204 0.383,0.395 0.656,0.573 0.321,0.218 0.677,0.403 1.065,0.553 0.452,0.177 0.937,0.341 1.455,0.491 0.144,0.041 0.708,0.188 1.692,0.441 0.444,0.116 0.864,0.261 1.261,0.435 0.395,0.174 0.703,0.417 0.921,0.727 0.219,0.311 0.329,0.627 0.329,0.948 0,0.232 -0.052,0.456 -0.155,0.671 C 6.301,-0.18 6.118,0.024 5.855,0.215 5.593,0.407 5.267,0.54 4.877,0.615 4.487,0.69 4.078,0.728 3.647,0.728 3.148,0.728 2.681,0.695 2.244,0.631 1.807,0.565 1.437,0.49 1.137,0.405 0.837,0.319 0.457,0.185 0,0"
         style="fill:#75ccc3;fill-opacity:1;fill-rule:nonzero;stroke:none"
         id="path209" />
    </g>
    <g
       id="g211"
       transform="matrix(0.35277777,0,0,-0.35277777,121.9283,41.753695)">
      <path
         d="M 0,0 C 0.048,0.232 0.085,0.499 0.112,0.8 0.81,0.991 1.415,1.123 1.928,1.194 2.44,1.267 2.96,1.302 3.486,1.302 4.095,1.302 4.66,1.249 5.184,1.144 5.706,1.037 6.133,0.859 6.465,0.61 6.796,0.36 7.015,0.075 7.121,-0.246 7.227,-0.567 7.28,-0.896 7.28,-1.23 7.28,-1.572 7.268,-2.005 7.244,-2.527 7.221,-3.051 7.188,-3.613 7.147,-4.214 7.106,-4.816 7.069,-5.566 7.035,-6.465 7.001,-7.364 6.984,-8.012 6.984,-8.408 V -9.27 c -0.178,0.007 -0.322,0.011 -0.431,0.011 -0.116,0 -0.261,-0.004 -0.432,-0.011 0.096,1.046 0.162,1.894 0.2,2.543 0.037,0.65 0.069,1.349 0.092,2.097 0.024,0.749 0.057,1.448 0.098,2.097 C 6.299,-2.71 6.137,-2.842 6.023,-2.927 5.911,-3.012 5.788,-3.089 5.654,-3.157 5.521,-3.226 5.36,-3.295 5.173,-3.367 4.984,-3.439 4.812,-3.5 4.654,-3.551 4.497,-3.603 4.116,-3.71 3.512,-3.874 2.906,-4.038 2.475,-4.161 2.215,-4.242 1.626,-4.434 1.172,-4.614 0.851,-4.785 0.502,-4.969 0.212,-5.174 -0.021,-5.399 -0.226,-5.597 -0.376,-5.805 -0.472,-6.024 -0.581,-6.283 -0.636,-6.56 -0.636,-6.853 c 0,-0.443 0.133,-0.829 0.4,-1.157 0.266,-0.327 0.603,-0.558 1.01,-0.691 0.407,-0.133 0.897,-0.199 1.471,-0.199 0.287,0 0.565,0.015 0.831,0.046 0.267,0.031 0.518,0.072 0.754,0.123 0.235,0.051 0.575,0.148 1.02,0.292 C 4.788,-8.699 4.737,-8.958 4.696,-9.218 4.143,-9.328 3.692,-9.397 3.348,-9.429 3.002,-9.459 2.676,-9.475 2.368,-9.475 c -0.574,0 -1.103,0.045 -1.589,0.134 -0.485,0.088 -0.892,0.262 -1.22,0.522 -0.329,0.259 -0.571,0.56 -0.728,0.901 -0.157,0.341 -0.236,0.7 -0.236,1.075 0,0.287 0.048,0.565 0.143,0.835 0.096,0.27 0.242,0.528 0.441,0.774 0.164,0.204 0.383,0.395 0.656,0.573 0.321,0.218 0.677,0.403 1.065,0.553 0.452,0.177 0.937,0.341 1.455,0.491 0.144,0.041 0.708,0.188 1.692,0.441 0.444,0.116 0.864,0.261 1.261,0.435 0.395,0.174 0.703,0.417 0.921,0.727 0.219,0.311 0.329,0.627 0.329,0.948 0,0.232 -0.052,0.456 -0.155,0.671 C 6.301,-0.18 6.118,0.024 5.855,0.215 5.593,0.407 5.267,0.54 4.877,0.615 4.487,0.69 4.078,0.728 3.647,0.728 3.148,0.728 2.681,0.695 2.244,0.631 1.807,0.565 1.437,0.49 1.137,0.405 0.837,0.319 0.457,0.185 0,0 Z"
         style="fill:none;stroke:#75ccc3;stroke-width:0.5;stroke-linecap:butt;stroke-linejoin:miter;stroke-miterlimit:10;stroke-dasharray:none;stroke-opacity:1"
         id="path213" />
    </g>
    <g
       id="g215"
       transform="matrix(0.35277777,0,0,-0.35277777,128.22454,44.795909)">
      <path
         d="m 0,0 c -0.055,-0.205 -0.096,-0.42 -0.123,-0.646 -0.554,-0.137 -1.063,-0.205 -1.527,-0.205 -0.39,0 -0.738,0.043 -1.041,0.128 -0.305,0.085 -0.552,0.239 -0.744,0.462 -0.191,0.221 -0.318,0.468 -0.379,0.738 -0.062,0.27 -0.092,0.559 -0.092,0.866 0,0.055 0.001,0.14 0.005,0.257 0.004,0.116 0.015,0.372 0.036,0.769 l 0.343,6.788 h -1.266 c 0.027,0.184 0.044,0.369 0.051,0.553 h 1.252 c 0.035,0.431 0.063,1.074 0.085,1.928 0.257,0.034 0.482,0.079 0.672,0.133 C -2.775,10.664 -2.8,9.977 -2.8,9.71 H 0.277 C 0.25,9.526 0.232,9.341 0.226,9.157 H -2.835 L -3.171,2.13 -3.181,1.71 c 0,-0.573 0.067,-0.99 0.201,-1.25 0.132,-0.259 0.321,-0.447 0.564,-0.563 0.242,-0.116 0.494,-0.174 0.754,-0.174 0.184,0 0.382,0.015 0.59,0.045 C -0.863,-0.203 -0.506,-0.125 0,0"
         style="fill:#75ccc3;fill-opacity:1;fill-rule:nonzero;stroke:none"
         id="path217" />
    </g>
    <g
       id="g219"
       transform="matrix(0.35277777,0,0,-0.35277777,128.22454,44.795909)">
      <path
         d="m 0,0 c -0.055,-0.205 -0.096,-0.42 -0.123,-0.646 -0.554,-0.137 -1.063,-0.205 -1.527,-0.205 -0.39,0 -0.738,0.043 -1.041,0.128 -0.305,0.085 -0.552,0.239 -0.744,0.462 -0.191,0.221 -0.318,0.468 -0.379,0.738 -0.062,0.27 -0.092,0.559 -0.092,0.866 0,0.055 0.001,0.14 0.005,0.257 0.004,0.116 0.015,0.372 0.036,0.769 l 0.343,6.788 h -1.266 c 0.027,0.184 0.044,0.369 0.051,0.553 h 1.252 c 0.035,0.431 0.063,1.074 0.085,1.928 0.257,0.034 0.482,0.079 0.672,0.133 C -2.775,10.664 -2.8,9.977 -2.8,9.71 H 0.277 C 0.25,9.526 0.232,9.341 0.226,9.157 H -2.835 L -3.171,2.13 -3.181,1.71 c 0,-0.573 0.067,-0.99 0.201,-1.25 0.132,-0.259 0.321,-0.447 0.564,-0.563 0.242,-0.116 0.494,-0.174 0.754,-0.174 0.184,0 0.382,0.015 0.59,0.045 C -0.863,-0.203 -0.506,-0.125 0,0 Z"
         style="fill:none;stroke:#75ccc3;stroke-width:0.5;stroke-linecap:butt;stroke-linejoin:miter;stroke-miterlimit:10;stroke-dasharray:none;stroke-opacity:1"
         id="path221" />
    </g>
    <g
       id="g223"
       transform="matrix(0.35277777,0,0,-0.35277777,133.2947,45.023804)">
      <path
         d="M 0,0 C -0.137,0.007 -0.262,0.01 -0.379,0.01 -0.494,0.01 -0.621,0.007 -0.758,0 l 0.082,2.225 C -0.832,1.876 -0.961,1.625 -1.059,1.472 -1.158,1.317 -1.287,1.155 -1.443,0.984 -1.602,0.813 -1.799,0.651 -2.033,0.497 -2.27,0.344 -2.549,0.212 -2.869,0.103 c -0.322,-0.11 -0.652,-0.188 -0.99,-0.236 -0.338,-0.048 -0.678,-0.072 -1.02,-0.072 -0.588,0 -1.137,0.065 -1.646,0.195 -0.51,0.13 -0.961,0.355 -1.354,0.677 -0.394,0.321 -0.662,0.695 -0.806,1.122 -0.143,0.427 -0.214,0.911 -0.214,1.451 0,0.417 0.045,1.447 0.137,3.092 0.092,1.644 0.138,2.985 0.138,4.024 0.178,-0.006 0.311,-0.01 0.399,-0.01 0.09,0 0.223,0.004 0.403,0.01 C -7.879,9.769 -7.959,8.548 -8.064,6.696 -8.17,4.843 -8.223,3.685 -8.223,3.22 -8.223,2.7 -8.154,2.259 -8.018,1.897 -7.881,1.535 -7.645,1.235 -7.305,1 c 0.338,-0.236 0.721,-0.402 1.149,-0.498 0.427,-0.095 0.867,-0.143 1.318,-0.143 0.473,0 0.926,0.059 1.359,0.179 0.436,0.12 0.795,0.269 1.083,0.446 0.287,0.178 0.541,0.397 0.759,0.657 0.254,0.3 0.469,0.649 0.647,1.046 0.158,0.348 0.273,0.78 0.349,1.296 0.075,0.517 0.139,1.452 0.192,2.805 0.047,1.299 0.072,2.488 0.08,3.568 0.183,-0.006 0.32,-0.01 0.41,-0.01 0.09,0 0.223,0.004 0.4,0.01 L 0.062,3.179 0.021,1.63 C 0.008,0.995 0,0.451 0,0"
         style="fill:#75ccc3;fill-opacity:1;fill-rule:nonzero;stroke:none"
         id="path225" />
    </g>
    <g
       id="g227"
       transform="matrix(0.35277777,0,0,-0.35277777,133.2947,45.023804)">
      <path
         d="M 0,0 C -0.137,0.007 -0.262,0.01 -0.379,0.01 -0.494,0.01 -0.621,0.007 -0.758,0 l 0.082,2.225 C -0.832,1.876 -0.961,1.625 -1.059,1.472 -1.158,1.317 -1.287,1.155 -1.443,0.984 -1.602,0.813 -1.799,0.651 -2.033,0.497 -2.27,0.344 -2.549,0.212 -2.869,0.103 c -0.322,-0.11 -0.652,-0.188 -0.99,-0.236 -0.338,-0.048 -0.678,-0.072 -1.02,-0.072 -0.588,0 -1.137,0.065 -1.646,0.195 -0.51,0.13 -0.961,0.355 -1.354,0.677 -0.394,0.321 -0.662,0.695 -0.806,1.122 -0.143,0.427 -0.214,0.911 -0.214,1.451 0,0.417 0.045,1.447 0.137,3.092 0.092,1.644 0.138,2.985 0.138,4.024 0.178,-0.006 0.311,-0.01 0.399,-0.01 0.09,0 0.223,0.004 0.403,0.01 C -7.879,9.769 -7.959,8.548 -8.064,6.696 -8.17,4.843 -8.223,3.685 -8.223,3.22 -8.223,2.7 -8.154,2.259 -8.018,1.897 -7.881,1.535 -7.645,1.235 -7.305,1 c 0.338,-0.236 0.721,-0.402 1.149,-0.498 0.427,-0.095 0.867,-0.143 1.318,-0.143 0.473,0 0.926,0.059 1.359,0.179 0.436,0.12 0.795,0.269 1.083,0.446 0.287,0.178 0.541,0.397 0.759,0.657 0.254,0.3 0.469,0.649 0.647,1.046 0.158,0.348 0.273,0.78 0.349,1.296 0.075,0.517 0.139,1.452 0.192,2.805 0.047,1.299 0.072,2.488 0.08,3.568 0.183,-0.006 0.32,-0.01 0.41,-0.01 0.09,0 0.223,0.004 0.4,0.01 L 0.062,3.179 0.021,1.63 C 0.008,0.995 0,0.451 0,0 Z"
         style="fill:none;stroke:#75ccc3;stroke-width:0.5;stroke-linecap:butt;stroke-linejoin:miter;stroke-miterlimit:10;stroke-dasharray:none;stroke-opacity:1"
         id="path229" />
    </g>
    <g
       id="g231"
       transform="matrix(0.35277777,0,0,-0.35277777,135.65182,45.023804)">
      <path
         d="M 0,0 0.349,6.265 0.44,9.208 c 0.014,0.526 0.021,0.909 0.021,1.148 0.178,-0.006 0.31,-0.01 0.4,-0.01 0.082,0 0.212,0.004 0.39,0.01 L 1.113,8.019 c 0.151,0.321 0.275,0.565 0.374,0.733 0.1,0.167 0.235,0.347 0.406,0.538 0.17,0.191 0.374,0.371 0.61,0.538 0.236,0.168 0.519,0.308 0.851,0.421 0.333,0.112 0.672,0.194 1.022,0.246 0.349,0.051 0.693,0.077 1.036,0.077 0.574,0 1.132,-0.065 1.672,-0.195 0.54,-0.13 0.988,-0.354 1.345,-0.672 C 8.784,9.388 9.028,9.021 9.162,8.608 9.295,8.194 9.361,7.752 9.361,7.28 9.361,7.068 9.352,6.754 9.331,6.337 L 9.116,1.671 9.076,0 C 8.938,0.007 8.806,0.01 8.675,0.01 8.545,0.01 8.415,0.007 8.285,0 8.353,0.854 8.407,1.671 8.447,2.451 L 8.589,5.076 C 8.644,6.046 8.67,6.747 8.67,7.178 8.67,7.629 8.605,8.032 8.476,8.388 8.346,8.743 8.122,9.039 7.804,9.274 7.486,9.511 7.109,9.681 6.672,9.787 6.234,9.893 5.783,9.946 5.318,9.946 4.67,9.946 4.096,9.857 3.597,9.68 3.125,9.509 2.712,9.257 2.356,8.926 2.001,8.594 1.711,8.176 1.485,7.67 1.314,7.301 1.185,6.785 1.096,6.122 1.015,5.547 0.948,4.609 0.897,3.307 0.847,2.005 0.821,0.902 0.821,0 0.644,0.007 0.506,0.01 0.41,0.01 0.314,0.01 0.178,0.007 0,0"
         style="fill:#75ccc3;fill-opacity:1;fill-rule:nonzero;stroke:none"
         id="path233" />
    </g>
    <g
       id="g235"
       transform="matrix(0.35277777,0,0,-0.35277777,135.65182,45.023804)">
      <path
         d="M 0,0 0.349,6.265 0.44,9.208 c 0.014,0.526 0.021,0.909 0.021,1.148 0.178,-0.006 0.31,-0.01 0.4,-0.01 0.082,0 0.212,0.004 0.39,0.01 L 1.113,8.019 c 0.151,0.321 0.275,0.565 0.374,0.733 0.1,0.167 0.235,0.347 0.406,0.538 0.17,0.191 0.374,0.371 0.61,0.538 0.236,0.168 0.519,0.308 0.851,0.421 0.333,0.112 0.672,0.194 1.022,0.246 0.349,0.051 0.693,0.077 1.036,0.077 0.574,0 1.132,-0.065 1.672,-0.195 0.54,-0.13 0.988,-0.354 1.345,-0.672 C 8.784,9.388 9.028,9.021 9.162,8.608 9.295,8.194 9.361,7.752 9.361,7.28 9.361,7.068 9.352,6.754 9.331,6.337 L 9.116,1.671 9.076,0 C 8.938,0.007 8.806,0.01 8.675,0.01 8.545,0.01 8.415,0.007 8.285,0 8.353,0.854 8.407,1.671 8.447,2.451 L 8.589,5.076 C 8.644,6.046 8.67,6.747 8.67,7.178 8.67,7.629 8.605,8.032 8.476,8.388 8.346,8.743 8.122,9.039 7.804,9.274 7.486,9.511 7.109,9.681 6.672,9.787 6.234,9.893 5.783,9.946 5.318,9.946 4.67,9.946 4.096,9.857 3.597,9.68 3.125,9.509 2.712,9.257 2.356,8.926 2.001,8.594 1.711,8.176 1.485,7.67 1.314,7.301 1.185,6.785 1.096,6.122 1.015,5.547 0.948,4.609 0.897,3.307 0.847,2.005 0.821,0.902 0.821,0 0.644,0.007 0.506,0.01 0.41,0.01 0.314,0.01 0.178,0.007 0,0 Z"
         style="fill:none;stroke:#75ccc3;stroke-width:0.5;stroke-linecap:butt;stroke-linejoin:miter;stroke-miterlimit:10;stroke-dasharray:none;stroke-opacity:1"
         id="path237" />
    </g>
    <g
       id="g239"
       transform="matrix(0.35277777,0,0,-0.35277777,144.3352,41.590923)">
      <path
         d="M 0,0 C -0.649,0.123 -1.169,0.198 -1.559,0.226 -1.948,0.253 -2.293,0.267 -2.594,0.267 -3.38,0.267 -4.107,0.178 -4.777,0 c -0.669,-0.178 -1.284,-0.513 -1.84,-1.005 -0.557,-0.492 -0.989,-1.124 -1.297,-1.897 -0.308,-0.772 -0.461,-1.572 -0.461,-2.399 0,-0.793 0.142,-1.511 0.426,-2.154 0.283,-0.642 0.724,-1.126 1.322,-1.451 0.599,-0.324 1.26,-0.487 1.984,-0.487 0.493,0 0.951,0.055 1.374,0.164 0.329,0.083 0.638,0.214 0.929,0.396 0.29,0.18 0.569,0.421 0.835,0.722 0.267,0.301 0.501,0.654 0.703,1.062 0.201,0.406 0.347,0.821 0.436,1.245 0.115,0.595 0.196,1.357 0.244,2.287 z m -8.262,-13.474 c 0.903,-0.259 1.647,-0.434 2.235,-0.523 0.588,-0.088 1.129,-0.133 1.621,-0.133 0.58,0 1.12,0.075 1.619,0.226 0.458,0.13 0.848,0.311 1.17,0.543 0.287,0.212 0.509,0.448 0.666,0.708 0.184,0.307 0.323,0.69 0.415,1.148 0.093,0.458 0.149,0.95 0.169,1.477 0.05,0.847 0.085,1.804 0.106,2.871 -0.136,-0.328 -0.255,-0.587 -0.354,-0.774 -0.099,-0.189 -0.238,-0.387 -0.415,-0.595 -0.178,-0.209 -0.385,-0.397 -0.62,-0.564 -0.237,-0.168 -0.507,-0.318 -0.811,-0.452 -0.305,-0.132 -0.642,-0.237 -1.011,-0.312 -0.369,-0.075 -0.752,-0.113 -1.148,-0.113 -0.637,0 -1.227,0.082 -1.77,0.246 -0.544,0.164 -1.029,0.441 -1.457,0.831 -0.427,0.39 -0.75,0.89 -0.969,1.502 -0.219,0.612 -0.329,1.256 -0.329,1.933 0,0.923 0.165,1.808 0.493,2.656 0.328,0.847 0.795,1.546 1.4,2.096 0.605,0.551 1.304,0.946 2.097,1.185 0.793,0.239 1.651,0.359 2.573,0.359 0.936,0 2.072,-0.12 3.404,-0.359 L 0.719,-0.697 C 0.697,-0.923 0.677,-1.217 0.655,-1.579 L 0.428,-6.275 0.311,-10.572 c -0.028,-0.512 -0.096,-0.967 -0.206,-1.364 -0.116,-0.423 -0.293,-0.803 -0.533,-1.138 -0.239,-0.335 -0.54,-0.618 -0.902,-0.851 -0.362,-0.232 -0.82,-0.417 -1.374,-0.554 -0.602,-0.15 -1.278,-0.225 -2.03,-0.225 -0.554,0 -1.094,0.029 -1.62,0.087 -0.527,0.058 -1.139,0.169 -1.836,0.333 -0.014,0.281 -0.039,0.551 -0.072,0.81"
         style="fill:#75ccc3;fill-opacity:1;fill-rule:nonzero;stroke:none"
         id="path241" />
    </g>
    <g
       id="g243"
       transform="matrix(0.35277777,0,0,-0.35277777,144.3352,41.590923)">
      <path
         d="M 0,0 C -0.649,0.123 -1.169,0.198 -1.559,0.226 -1.948,0.253 -2.293,0.267 -2.594,0.267 -3.38,0.267 -4.107,0.178 -4.777,0 c -0.669,-0.178 -1.284,-0.513 -1.84,-1.005 -0.557,-0.492 -0.989,-1.124 -1.297,-1.897 -0.308,-0.772 -0.461,-1.572 -0.461,-2.399 0,-0.793 0.142,-1.511 0.426,-2.154 0.283,-0.642 0.724,-1.126 1.322,-1.451 0.599,-0.324 1.26,-0.487 1.984,-0.487 0.493,0 0.951,0.055 1.374,0.164 0.329,0.083 0.638,0.214 0.929,0.396 0.29,0.18 0.569,0.421 0.835,0.722 0.267,0.301 0.501,0.654 0.703,1.062 0.201,0.406 0.347,0.821 0.436,1.245 0.115,0.595 0.196,1.357 0.244,2.287 z m -8.262,-13.474 c 0.903,-0.259 1.647,-0.434 2.235,-0.523 0.588,-0.088 1.129,-0.133 1.621,-0.133 0.58,0 1.12,0.075 1.619,0.226 0.458,0.13 0.848,0.311 1.17,0.543 0.287,0.212 0.509,0.448 0.666,0.708 0.184,0.307 0.323,0.69 0.415,1.148 0.093,0.458 0.149,0.95 0.169,1.477 0.05,0.847 0.085,1.804 0.106,2.871 -0.136,-0.328 -0.255,-0.587 -0.354,-0.774 -0.099,-0.189 -0.238,-0.387 -0.415,-0.595 -0.178,-0.209 -0.385,-0.397 -0.62,-0.564 -0.237,-0.168 -0.507,-0.318 -0.811,-0.452 -0.305,-0.132 -0.642,-0.237 -1.011,-0.312 -0.369,-0.075 -0.752,-0.113 -1.148,-0.113 -0.637,0 -1.227,0.082 -1.77,0.246 -0.544,0.164 -1.029,0.441 -1.457,0.831 -0.427,0.39 -0.75,0.89 -0.969,1.502 -0.219,0.612 -0.329,1.256 -0.329,1.933 0,0.923 0.165,1.808 0.493,2.656 0.328,0.847 0.795,1.546 1.4,2.096 0.605,0.551 1.304,0.946 2.097,1.185 0.793,0.239 1.651,0.359 2.573,0.359 0.936,0 2.072,-0.12 3.404,-0.359 L 0.719,-0.697 C 0.697,-0.923 0.677,-1.217 0.655,-1.579 L 0.428,-6.275 0.311,-10.572 c -0.028,-0.512 -0.096,-0.967 -0.206,-1.364 -0.116,-0.423 -0.293,-0.803 -0.533,-1.138 -0.239,-0.335 -0.54,-0.618 -0.902,-0.851 -0.362,-0.232 -0.82,-0.417 -1.374,-0.554 -0.602,-0.15 -1.278,-0.225 -2.03,-0.225 -0.554,0 -1.094,0.029 -1.62,0.087 -0.527,0.058 -1.139,0.169 -1.836,0.333 -0.014,0.281 -0.039,0.551 -0.072,0.81 z"
         style="fill:none;stroke:#75ccc3;stroke-width:0.5;stroke-linecap:butt;stroke-linejoin:miter;stroke-miterlimit:10;stroke-dasharray:none;stroke-opacity:1"
         id="path245" />
    </g>
  </g>
</svg>
